<svg xmlns="http://www.w3.org/2000/svg" xmlns:xlink="http://www.w3.org/1999/xlink" width="156.439" height="156.415" viewBox="0 0 156.439 156.415"><defs><style>.a{fill:#fff;}.b,.c{fill:none;stroke-miterlimit:10;stroke-width:2.5px;}.b{stroke:#161615;}.c{stroke:#171716;}.d{opacity:0;fill:url(#a);}</style><linearGradient id="a" x1="0.792" y1="0.132" x2="0.382" y2="0.944" gradientUnits="objectBoundingBox"><stop offset="0" stop-color="#eac887"/><stop offset="1" stop-color="#744d14"/></linearGradient></defs><path class="a" d="M244.611,77.5A77.5,77.5,0,1,1,167.106,0a77.5,77.5,0,0,1,77.5,77.5" transform="translate(-88.172 0.914)"/><ellipse class="b" cx="64.97" cy="64.97" rx="64.97" ry="64.97" transform="translate(13.965 13.449)"/><path class="c" d="M185.454,95.663,185.2,74.158l8.152-.118S189.1,59.39,188.741,54.074c-.476-7.148-.969-12.908-5.434-20.792-7.412-13.091-41.334-28.5-64.724-1.8-22.567,25.759-.465,51.1,7.568,59.132A20.029,20.029,0,0,1,131.6,102.7c.564,4.865.747,8.786.747,8.786h32.764s-.4-9.677,0-12.288C165.509,96.654,185.032,95.928,185.454,95.663Z" transform="translate(-72.536 14.668)"/><path class="c" d="M144.84,49.557c1.88-3.411,4.99-6.757,4.99-11.9,0-6.959-6.517-13.877-14.555-13.877s-14.557,5.361-14.557,13.877,6.09,10.628,6.71,15.627a127.664,127.664,0,0,1,.811,15.787h14.773a99.123,99.123,0,0,1,.487-15.787H130.025" transform="translate(-62.717 20.369)"/><line class="c" x2="8.419" transform="translate(68.715 78.82)"/><line class="c" x2="8.419" transform="translate(68.715 83.933)"/><ellipse class="d" cx="78.208" cy="78.208" rx="78.208" ry="78.208" transform="translate(0 0)"/></svg>