<svg xmlns="http://www.w3.org/2000/svg" xmlns:xlink="http://www.w3.org/1999/xlink" width="164" height="164" viewBox="0 0 164 164"><defs><style>.a,.d,.e{fill:none;}.b{clip-path:url(#a);}.c{fill:#fff;}.d{stroke:#161615;}.d,.e{stroke-miterlimit:10;stroke-width:3px;}.e{stroke:#171716;}.f{opacity:0;fill:url(#b);}</style><clipPath id="a"><rect class="a" width="164" height="164"/></clipPath><linearGradient id="b" x1="0.768" y1="0.091" x2="0.319" y2="0.94" gradientUnits="objectBoundingBox"><stop offset="0" stop-color="#ecca89"/><stop offset="1" stop-color="#744d14"/></linearGradient></defs><g class="b"><path class="c" d="M164,82A82,82,0,1,1,82,0a82,82,0,0,1,82,82"/><circle class="d" cx="68.738" cy="68.738" r="68.738" transform="translate(13.262 13.262)"/><path class="e" d="M121.837,74.13l-3.344-.993a4.834,4.834,0,0,1-2.854-2.762l-.872-2.258A4.872,4.872,0,0,1,115,64.146l1.751-2.954a3.119,3.119,0,0,0-.407-3.54l-8.192-8.519a3.112,3.112,0,0,0-3.521-.548l-2.854,1.546a4.784,4.784,0,0,1-3.965.049l-2.756-1.22a4.873,4.873,0,0,1-2.645-2.973l-.888-3.482a3.117,3.117,0,0,0-2.791-2.214l-11.819-.232a3.116,3.116,0,0,0-2.877,2.1l-1.024,3.445a4.893,4.893,0,0,1-2.757,2.871l-3.03,1.216a4.753,4.753,0,0,1-3.954-.193l-2.628-1.562a3.114,3.114,0,0,0-3.541.409l-8.522,8.191a3.12,3.12,0,0,0-.546,3.521l1.608,2.967A4.892,4.892,0,0,1,49.729,67c-.54,1.1-2.651,4.406-3.845,4.709l-3.38.862a3.119,3.119,0,0,0-2.214,2.793l-.232,11.817a3.117,3.117,0,0,0,2.1,2.877l3.344.994a4.838,4.838,0,0,1,2.857,2.763l.942,2.421a4.843,4.843,0,0,1-.226,3.969l-1.583,2.666a3.117,3.117,0,0,0,.408,3.542l8.193,8.519a3.117,3.117,0,0,0,3.523.549l2.615-1.417a4.794,4.794,0,0,1,3.966-.052l2.8,1.236a4.854,4.854,0,0,1,2.646,2.969l.835,3.278a3.117,3.117,0,0,0,2.792,2.215l11.819.231a3.114,3.114,0,0,0,2.877-2.1l.963-3.243a4.83,4.83,0,0,1,2.763-2.857l2.618-1.024a4.834,4.834,0,0,1,3.967.221L103,116.55a3.112,3.112,0,0,0,3.54-.409l8.522-8.191a3.115,3.115,0,0,0,.546-3.521l-1.507-2.781a4.831,4.831,0,0,1-.063-3.972l1.116-2.549a4.846,4.846,0,0,1,2.965-2.649l3.381-.861a3.118,3.118,0,0,0,2.214-2.792l.232-11.818A3.125,3.125,0,0,0,121.837,74.13ZM82,65.11l4.822,9.959,10.962,1.508L89.8,84.241l1.953,10.891L82,89.909l-9.755,5.223L74.2,84.241l-7.982-7.664,10.962-1.508Z"/><circle class="f" cx="82" cy="82" r="82"/></g></svg>