<svg xmlns="http://www.w3.org/2000/svg" xmlns:xlink="http://www.w3.org/1999/xlink" width="154" height="158" viewBox="0 0 154 158"><defs><style>.a,.d,.e{fill:none;}.b{clip-path:url(#a);}.c{fill:#fff;}.d{stroke:#161615;}.d,.e{stroke-miterlimit:10;stroke-width:3px;}.e{stroke:#171716;}.f{opacity:0;fill:url(#b);}</style><clipPath id="a"><rect class="a" width="154" height="158" transform="translate(0.241 -3.759)"/></clipPath><linearGradient id="b" x1="0.5" x2="0.5" y2="1" gradientUnits="objectBoundingBox"><stop offset="0" stop-color="#ecca89"/><stop offset="1" stop-color="#744d14"/></linearGradient></defs><g transform="translate(-0.241 3.759)"><g class="b"><path class="c" d="M154.483,77.241A77.241,77.241,0,1,1,77.241,0a77.242,77.242,0,0,1,77.241,77.241"/><circle class="d" cx="64.749" cy="64.749" r="64.749" transform="translate(12.492 12.492)"/><path class="e" d="M112.872,58.187a4.215,4.215,0,0,0,2.865-4.932c-.388-2.277-2.3-3.756-4.268-3.311L43.237,65.465A4.216,4.216,0,0,0,40.372,70.4a3.814,3.814,0,0,0,3.563,3.39,3.192,3.192,0,0,0,.706-.079l24.27-5.479v53.412s-.4,6.7,3.718,6.7,3.813-7.118,3.813-7.118.06-18.177.06-23.281,5.928-5.173,5.928-.209c0,3.355-.3,23.7-.3,23.7s-.7,6.879,3.66,6.879,3.9-5.691,3.9-5.691V63.637Z" transform="translate(-2.339 -2.894)"/><path class="e" d="M88.278,43.4a7.339,7.339,0,1,1-7.339-7.339A7.339,7.339,0,0,1,88.278,43.4Z" transform="translate(-4.271 -2.093)"/><path class="e" d="M52.521,96.38H34.453s-1.812,10.491,9.241,10.491c9.488,0,9.605-7.731,9.449-9.92A.621.621,0,0,0,52.521,96.38Z" transform="translate(-1.993 -5.593)"/><path class="e" d="M52.874,95.274,44.324,75.859a.8.8,0,0,0-1.47-.006L34.46,95.161" transform="translate(-2 -4.374)"/><path class="e" d="M127.846,80.308H109.778S107.966,90.8,119.019,90.8c9.488,0,9.605-7.731,9.449-9.92A.621.621,0,0,0,127.846,80.308Z" transform="translate(-6.364 -4.66)"/><path class="e" d="M128.2,79.2l-8.549-19.415a.8.8,0,0,0-1.47-.006l-8.394,19.308" transform="translate(-6.371 -3.441)"/><circle class="f" cx="78" cy="78" r="78" transform="translate(-0.759 -0.759)"/></g></g></svg>