<svg xmlns="http://www.w3.org/2000/svg" xmlns:xlink="http://www.w3.org/1999/xlink" width="174" height="175" viewBox="0 0 174 175"><defs><style>.a,.d,.e{fill:none;}.b{clip-path:url(#a);}.c{fill:#fff;}.d{stroke:#161615;stroke-width:3px;}.d,.e{stroke-miterlimit:10;}.e{stroke:#040405;stroke-width:2.5px;}.f{opacity:0;fill:url(#b);}</style><clipPath id="a"><rect class="a" width="174" height="175" transform="translate(-4 -4)"/></clipPath><linearGradient id="b" x1="0.773" y1="0.079" x2="0.31" y2="0.917" gradientUnits="objectBoundingBox"><stop offset="0" stop-color="#ecca89"/><stop offset="1" stop-color="#764f16"/></linearGradient></defs><g transform="translate(4 4)"><g class="b"><path class="c" d="M164,82A82,82,0,1,1,82,0a82,82,0,0,1,82,82"/><circle class="d" cx="68.738" cy="68.738" r="68.738" transform="translate(13 13.262)"/><path class="e" d="M115.908,126H46.639c0-19.128,15.507-37.878,34.635-37.878S115.908,106.875,115.908,126Z"/><path class="e" d="M98.417,63.916A17.144,17.144,0,1,1,81.274,46.773,17.143,17.143,0,0,1,98.417,63.916Z"/><rect class="e" width="8.495" height="22.697" rx="3.728" transform="translate(51.185 53.77)"/><rect class="e" width="8.495" height="22.697" rx="3.728" transform="translate(103.216 53.77)"/><path class="e" d="M55.433,53.769s3.9-18.45,25.841-18.45,26.19,18.45,26.19,18.45"/><path class="e" d="M76.514,88.519s1.577,4.433,4.76,4.433,4.772-4.433,4.772-4.433"/><path class="e" d="M77.969,91.087l-2.949,12.35,6.429,8.622,6.211-8.564L84.529,91.158"/><circle class="f" cx="83" cy="83" r="83" transform="translate(-1 -1)"/></g></g></svg>