<svg xmlns="http://www.w3.org/2000/svg" xmlns:xlink="http://www.w3.org/1999/xlink" width="173" height="169" viewBox="0 0 173 169"><defs><style>.a,.d,.e{fill:none;}.b{clip-path:url(#a);}.c{fill:#fff;}.d{stroke:#161615;stroke-width:3px;}.d,.e{stroke-miterlimit:10;}.e{stroke:#040405;stroke-width:2.5px;}.f{opacity:0;fill:url(#b);}</style><clipPath id="a"><rect class="a" width="173" height="169" transform="translate(-5 -2)"/></clipPath><linearGradient id="b" x1="0.767" y1="0.087" x2="0.317" y2="0.93" gradientUnits="objectBoundingBox"><stop offset="0" stop-color="#ecca89"/><stop offset="1" stop-color="#744d14"/></linearGradient></defs><g class="b" transform="translate(5 2)"><path class="c" d="M164,82A82,82,0,1,1,82,0a82,82,0,0,1,82,82"/><circle class="d" cx="68.738" cy="68.738" r="68.738" transform="translate(13 13.262)"/><path class="e" d="M56,125.838s13.631-55.922,46.485-71.3"/><path class="e" d="M62.025,107.4S31.639,85.19,59.849,60.479C82.393,40.731,115.771,46.79,115.771,46.79s5.418,43.582-24.815,57.9C77.674,110.984,62.025,107.4,62.025,107.4Z"/><circle class="f" cx="82" cy="82" r="82"/></g></svg>