<svg xmlns="http://www.w3.org/2000/svg" xmlns:xlink="http://www.w3.org/1999/xlink" width="154.779" height="159" viewBox="0 0 154.779 159"><defs><style>.a,.b,.d{fill:#fff;}.a,.d{stroke:#fff;}.c{clip-path:url(#a);}.d{stroke-miterlimit:10;}.e{clip-path:url(#b);}</style><clipPath id="a"><rect class="a" width="154.779" height="159"/></clipPath><clipPath id="b"><rect class="b" width="154.779" height="159"/></clipPath></defs><g class="c"><path class="d" d="M4.709,395.569c1.679,0,2.691-.856,2.691-2.124,0-1.357-1.179-1.846-2.413-2.324-1.312-.5-1.891-.745-1.891-1.491,0-.711.522-1.1,1.446-1.1,1.123,0,1.735.6,1.735,1.346v.133a.147.147,0,0,0,.167.145h.723a.158.158,0,0,0,.167-.167v-.167c0-1.323-1.079-2.213-2.747-2.213-1.546,0-2.535.756-2.535,2.046,0,1.357,1.112,1.8,2.38,2.291,1.3.523,1.9.834,1.9,1.535,0,.667-.489,1.168-1.546,1.168-1.112,0-1.79-.567-1.79-1.3v-.211a.158.158,0,0,0-.167-.167H2.118a.158.158,0,0,0-.167.167v.267C1.951,394.713,3.03,395.569,4.709,395.569Z" transform="translate(-1.204 -239.13)"/><path class="d" d="M28.242,394.658a1.6,1.6,0,0,1-1.679-1.7v-2.7a1.685,1.685,0,1,1,3.369,0v2.7A1.6,1.6,0,0,1,28.242,394.658Zm0,.923A2.563,2.563,0,0,0,31,392.912v-2.647a2.561,2.561,0,0,0-2.758-2.658,2.558,2.558,0,0,0-2.747,2.658v2.647A2.56,2.56,0,0,0,28.242,395.581Z" transform="translate(-15.729 -239.13)"/><path class="d" d="M55.36,388.6v-.589a.158.158,0,0,0-.167-.167H50.367a.158.158,0,0,0-.167.167v7.451a.158.158,0,0,0,.167.167H51.1a.157.157,0,0,0,.166-.167v-3.236a.053.053,0,0,1,.056-.056h2.636a.157.157,0,0,0,.166-.167v-.59a.157.157,0,0,0-.166-.167H51.323a.053.053,0,0,1-.056-.055v-2.369a.053.053,0,0,1,.056-.056h3.87A.158.158,0,0,0,55.36,388.6Z" transform="translate(-30.97 -239.273)"/><path class="d" d="M76.8,387.84H71.589a.158.158,0,0,0-.167.167v.6a.157.157,0,0,0,.167.167h1.968a.053.053,0,0,1,.056.056v6.628a.158.158,0,0,0,.167.167h.734a.158.158,0,0,0,.167-.167V388.83a.053.053,0,0,1,.056-.056H76.8a.158.158,0,0,0,.167-.167v-.6A.158.158,0,0,0,76.8,387.84Z" transform="translate(-44.063 -239.273)"/><path class="d" d="M95.994,395.624h.723a.171.171,0,0,0,.178-.144l1.39-5.672c.011-.044.056-.044.067,0l1.435,5.672a.171.171,0,0,0,.178.144h.768a.171.171,0,0,0,.178-.144l1.99-7.451a.135.135,0,0,0-.144-.189h-.745a.17.17,0,0,0-.178.144l-1.446,5.471c-.011.044-.056.044-.067,0l-1.435-5.471a.17.17,0,0,0-.178-.144h-.789a.17.17,0,0,0-.178.144l-1.357,5.471c-.011.044-.056.044-.067,0l-1.446-5.471a.17.17,0,0,0-.177-.144h-.8c-.111,0-.167.067-.134.189L95.8,395.48A.182.182,0,0,0,95.994,395.624Z" transform="translate(-57.837 -239.273)"/><path class="d" d="M124.694,393.289l1.279-4.148c.011-.056.056-.056.067,0l1.29,4.148c.011.045-.011.067-.044.067h-2.547C124.705,393.356,124.683,393.333,124.694,393.289Zm3.5,2.336h.8c.122,0,.167-.078.133-.189l-2.424-7.462a.178.178,0,0,0-.189-.133h-1.023a.178.178,0,0,0-.189.133l-2.4,7.462c-.033.122.011.189.133.189h.79a.178.178,0,0,0,.189-.134l.39-1.245c.011-.022.022-.044.055-.044h3.1c.033,0,.044.022.056.044l.389,1.245A.178.178,0,0,0,128.2,395.624Z" transform="translate(-75.817 -239.273)"/><path class="d" d="M149.795,388.733h1.846a1.29,1.29,0,1,1,0,2.58h-1.846a.053.053,0,0,1-.056-.056v-2.469A.053.053,0,0,1,149.795,388.733Zm3.359,6.873h.756c.122,0,.178-.078.122-.2l-1.579-3.281a.047.047,0,0,1,.033-.067,1.993,1.993,0,0,0,1.523-2.035,2.1,2.1,0,0,0-2.235-2.213h-2.936a.158.158,0,0,0-.167.167v7.462a.158.158,0,0,0,.167.167h.734a.158.158,0,0,0,.167-.167V392.2a.052.052,0,0,1,.056-.055h1.568a.09.09,0,0,1,.067.044l1.535,3.292A.2.2,0,0,0,153.153,395.606Z" transform="translate(-91.721 -239.255)"/><path class="d" d="M177.734,388.6v-.589a.158.158,0,0,0-.167-.167H172.73a.158.158,0,0,0-.167.167v7.451a.158.158,0,0,0,.167.167h4.837a.158.158,0,0,0,.167-.167v-.589a.158.158,0,0,0-.167-.167h-3.881a.053.053,0,0,1-.056-.056v-2.424a.053.053,0,0,1,.056-.056h2.647A.157.157,0,0,0,176.5,392v-.59a.158.158,0,0,0-.167-.167h-2.647a.053.053,0,0,1-.056-.055v-2.369a.053.053,0,0,1,.056-.056h3.881A.158.158,0,0,0,177.734,388.6Z" transform="translate(-106.461 -239.273)"/><path class="d" d="M213.094,388.6v-.589a.158.158,0,0,0-.167-.167H208.09a.158.158,0,0,0-.167.167v7.451a.158.158,0,0,0,.167.167h4.837a.158.158,0,0,0,.167-.167v-.589a.158.158,0,0,0-.167-.167h-3.881a.053.053,0,0,1-.056-.056v-2.424a.053.053,0,0,1,.056-.056h2.647a.157.157,0,0,0,.167-.167v-.59a.158.158,0,0,0-.167-.167h-2.647a.053.053,0,0,1-.056-.055v-2.369a.053.053,0,0,1,.056-.056h3.881A.158.158,0,0,0,213.094,388.6Z" transform="translate(-128.276 -239.273)"/><path class="d" d="M232.836,395.624h.812a.178.178,0,0,0,.189-.134l2.38-7.462c.034-.122-.022-.189-.144-.189H235.3a.191.191,0,0,0-.189.144l-1.812,6.061c-.012.055-.056.055-.067,0l-1.824-6.061a.19.19,0,0,0-.189-.144h-.79c-.122,0-.177.067-.144.189l2.357,7.462A.178.178,0,0,0,232.836,395.624Z" transform="translate(-142.069 -239.273)"/><path class="d" d="M256.682,394.658a1.6,1.6,0,0,1-1.679-1.7v-2.7a1.685,1.685,0,1,1,3.369,0v2.7A1.6,1.6,0,0,1,256.682,394.658Zm0,.923a2.563,2.563,0,0,0,2.758-2.669v-2.647a2.754,2.754,0,0,0-5.5,0v2.647A2.56,2.56,0,0,0,256.682,395.581Z" transform="translate(-156.662 -239.13)"/><path class="d" d="M278.807,395.624h4.726a.158.158,0,0,0,.167-.167v-.589a.157.157,0,0,0-.167-.167h-3.77a.053.053,0,0,1-.056-.056v-6.639a.157.157,0,0,0-.167-.167h-.734a.158.158,0,0,0-.167.167v7.451A.158.158,0,0,0,278.807,395.624Z" transform="translate(-171.904 -239.273)"/><path class="d" d="M303.818,395.712a2.5,2.5,0,0,0,2.724-2.558v-5.149a.158.158,0,0,0-.167-.167h-.734a.158.158,0,0,0-.167.167v5.171a1.663,1.663,0,0,1-3.325,0v-5.171a.158.158,0,0,0-.167-.167h-.734a.158.158,0,0,0-.167.167v5.149A2.508,2.508,0,0,0,303.818,395.712Z" transform="translate(-185.749 -239.273)"/><path class="d" d="M330.094,387.84h-5.215a.158.158,0,0,0-.167.167v.6a.157.157,0,0,0,.167.167h1.968a.053.053,0,0,1,.056.056v6.628a.158.158,0,0,0,.167.167h.734a.158.158,0,0,0,.167-.167V388.83a.053.053,0,0,1,.056-.056h2.069a.157.157,0,0,0,.167-.167v-.6A.158.158,0,0,0,330.094,387.84Z" transform="translate(-200.327 -239.273)"/><path class="d" d="M.436,0h.2a.435.435,0,0,1,.435.435V7.349a.435.435,0,0,1-.435.435h-.2A.436.436,0,0,1,0,7.348V.436A.436.436,0,0,1,.436,0Z" transform="translate(133.592 148.567)"/><path class="d" d="M364.589,394.658a1.6,1.6,0,0,1-1.679-1.7v-2.7a1.685,1.685,0,1,1,3.369,0v2.7A1.6,1.6,0,0,1,364.589,394.658Zm0,.923a2.563,2.563,0,0,0,2.758-2.669v-2.647a2.754,2.754,0,0,0-5.5,0v2.647A2.56,2.56,0,0,0,364.589,395.581Z" transform="translate(-223.234 -239.13)"/><path class="d" d="M386.713,395.624h.734a.158.158,0,0,0,.167-.167L387.6,390c0-.056.044-.067.067-.023l3.4,5.538a.212.212,0,0,0,.2.111H392a.158.158,0,0,0,.167-.167v-7.451a.158.158,0,0,0-.167-.167h-.734a.157.157,0,0,0-.167.167v5.427c0,.056-.045.067-.067.022l-3.4-5.5a.212.212,0,0,0-.2-.111h-.711a.158.158,0,0,0-.167.167v7.451A.158.158,0,0,0,386.713,395.624Z" transform="translate(-238.475 -239.273)"/></g><path class="d" d="M82.87,100.99,50.313,82.538V52.022L27.249,29.461V95.934l55,31.669L138.49,95.135l-18.1-16.6Z" transform="translate(-16.811 -18.175)"/><g class="e"><path class="d" d="M150.543.577,94.3,33.045l18.1,16.6L149.922,27.19l32.556,18.452V76.158L205.543,98.72V32.246Z" transform="translate(-58.178 -0.356)"/><path class="d" d="M29.863,332.132c4.79,0,7.81-2.471,7.81-6.193,0-4.149-3.844-5.339-6.62-6.345-3.386-1.19-4.728-1.739-4.728-3.325,0-1.434,1.1-2.288,3.051-2.288,2.562,0,3.935,1.5,3.935,3.081v.305c0,.183.183.3.519.3h3.2a.467.467,0,0,0,.519-.519v-.3c0-3.936-3.325-6.559-8.023-6.559-4.362,0-7.443,2.288-7.443,6.04,0,4.027,3.661,5.461,6.833,6.559,2.9,1.068,4.454,1.617,4.454,3.173,0,1.22-.854,2.38-3.173,2.38-2.471,0-4.027-1.342-4.027-2.9v-.427c0-.244-.183-.4-.518-.4h-3.2a.467.467,0,0,0-.518.519v.519C21.932,329.631,25.074,332.132,29.863,332.132Z" transform="translate(-13.531 -191.43)"/><path class="d" d="M1.354,0H2.947A1.354,1.354,0,0,1,4.3,1.354V20a1.353,1.353,0,0,1-1.353,1.353H1.354A1.354,1.354,0,0,1,0,20V1.354A1.354,1.354,0,0,1,1.354,0Z" transform="translate(27.162 119.104)"/><path class="d" d="M92.37,332.282h13.758a.467.467,0,0,0,.519-.519V329.11a.467.467,0,0,0-.519-.519H96.336a.162.162,0,0,1-.183-.183V311.446a.467.467,0,0,0-.519-.518H92.37a.467.467,0,0,0-.519.518v20.317A.467.467,0,0,0,92.37,332.282Z" transform="translate(-56.666 -191.824)"/><path class="d" d="M138.321,332.282h3.538a.562.562,0,0,0,.58-.427l6.284-20.347c.122-.336-.061-.58-.427-.58h-3.447a.588.588,0,0,0-.58.457l-3.935,14.674a.122.122,0,0,1-.244,0l-4-14.7a.562.562,0,0,0-.58-.427h-3.539c-.366,0-.518.244-.427.58l6.193,20.347A.561.561,0,0,0,138.321,332.282Z" transform="translate(-81.141 -191.824)"/><path class="d" d="M197.941,314.1v-2.654a.467.467,0,0,0-.519-.518H183.634a.467.467,0,0,0-.519.518v20.317a.467.467,0,0,0,.519.519h13.789a.467.467,0,0,0,.519-.519V329.11a.467.467,0,0,0-.519-.519H187.6a.176.176,0,0,1-.183-.183v-4.881a.176.176,0,0,1,.183-.183h6.376a.467.467,0,0,0,.519-.519v-2.654a.467.467,0,0,0-.519-.519H187.6a.162.162,0,0,1-.183-.183V314.8a.176.176,0,0,1,.183-.183h9.823A.467.467,0,0,0,197.941,314.1Z" transform="translate(-112.971 -191.824)"/><path class="d" d="M234.108,314.57h3.965a2.708,2.708,0,0,1,2.9,2.776,2.678,2.678,0,0,1-2.9,2.715h-3.965a.176.176,0,0,1-.183-.183v-5.125A.162.162,0,0,1,234.108,314.57Zm7.352,17.663h3.447c.4,0,.549-.275.366-.61l-4.027-8.419a.154.154,0,0,1,.092-.244,5.691,5.691,0,0,0,3.9-5.674,6.125,6.125,0,0,0-6.528-6.437h-8.572a.467.467,0,0,0-.519.518v20.347a.467.467,0,0,0,.519.519h3.264a.467.467,0,0,0,.519-.519V323.57a.162.162,0,0,1,.183-.183h2.776a.229.229,0,0,1,.213.153l3.752,8.3A.668.668,0,0,0,241.459,332.233Z" transform="translate(-141.663 -191.775)"/><path class="d" d="M302.378,320.488h-3.844a.162.162,0,0,1-.183-.183v-5.552a.162.162,0,0,1,.183-.183h3.844a2.963,2.963,0,1,1,0,5.918Zm.641-9.64h-8.45a.467.467,0,0,0-.518.519v20.347a.466.466,0,0,0,.518.518h3.264a.466.466,0,0,0,.518-.518v-7.6a.176.176,0,0,1,.183-.183h4.3c4.149,0,6.925-2.593,6.925-6.467C309.761,313.5,307.076,310.848,303.019,310.848Z" transform="translate(-181.411 -191.774)"/><path class="d" d="M350.256,328.56h-3.783a.162.162,0,0,1-.183-.183v-5a.176.176,0,0,1,.183-.183h3.752c1.922,0,3.02,1.007,3.02,2.685S352.148,328.56,350.256,328.56Zm-3.783-13.942h3.539c1.922,0,3.02.976,3.02,2.563,0,1.556-1.1,2.5-3.02,2.5h-3.539a.162.162,0,0,1-.183-.183v-4.7A.162.162,0,0,1,346.474,314.618Zm8.206,6.5a4.388,4.388,0,0,0,2.562-4.332c0-4.149-2.684-5.857-7.23-5.857h-7.5a.467.467,0,0,0-.519.519v20.317a.467.467,0,0,0,.519.518h7.748c4.088,0,7.291-1.83,7.291-5.979a5.046,5.046,0,0,0-2.867-4.941A.127.127,0,0,1,354.68,321.116Z" transform="translate(-210.986 -191.823)"/></g></svg>