<svg xmlns="http://www.w3.org/2000/svg" xmlns:xlink="http://www.w3.org/1999/xlink" width="256.439" height="256.4" viewBox="0 0 256.439 256.4"><defs><style>.a{fill:#fff;}.b,.c{fill:none;stroke-miterlimit:10;stroke-width:4px;}.b{stroke:#161615;}.c{stroke:#171716;}.d{opacity:0.83;fill:url(#a);}</style><linearGradient id="a" x1="0.792" y1="0.132" x2="0.382" y2="0.944" gradientUnits="objectBoundingBox"><stop offset="0" stop-color="#eac887"/><stop offset="1" stop-color="#744d14"/></linearGradient></defs><path class="a" d="M343.7,127.048A127.048,127.048,0,1,1,216.649,0,127.048,127.048,0,0,1,343.7,127.048" transform="translate(-87.258 1.499)"/><ellipse class="b" cx="106.5" cy="106.5" rx="106.5" ry="106.5" transform="translate(22.892 22.045)"/><path class="c" d="M234.507,146.066l-.42-35.252,13.363-.194s-6.973-24.014-7.555-32.728c-.781-11.718-1.588-21.159-8.907-34.083-12.15-21.46-67.756-46.71-106.1-2.944C87.9,83.09,124.127,124.627,137.3,137.8c5.889,5.892,8.192,13.357,8.937,19.812.924,7.975,1.225,14.4,1.225,14.4h53.707s-.662-15.863,0-20.143C201.812,147.69,233.815,146.5,234.507,146.066Z" transform="translate(-49.409 34.791)"/><path class="c" d="M160.259,66.032c3.081-5.591,8.18-11.077,8.18-19.5,0-11.408-10.684-22.747-23.859-22.747s-23.862,8.788-23.862,22.747,9.983,17.422,11,25.617a209.272,209.272,0,0,1,1.329,25.879h24.216a162.482,162.482,0,0,1,.8-25.879H135.974" transform="translate(-25.641 48.592)"/><line class="c" x2="13.801" transform="translate(112.639 129.203)"/><line class="c" x2="13.801" transform="translate(112.639 137.585)"/><circle class="d" cx="128.2" cy="128.2" r="128.2" transform="translate(0 0)"/></svg>