<svg xmlns="http://www.w3.org/2000/svg" xmlns:xlink="http://www.w3.org/1999/xlink" width="256" height="256" viewBox="0 0 256 256"><defs><style>.a,.d,.e{fill:none;}.b{clip-path:url(#a);}.c{fill:#fff;}.d{stroke:#161615;}.d,.e{stroke-miterlimit:10;stroke-width:4px;}.e{stroke:#171716;}.f{opacity:0.83;fill:url(#b);}</style><clipPath id="a"><rect class="a" width="256" height="256" transform="translate(-0.15 -0.15)"/></clipPath><linearGradient id="b" x1="0.768" y1="0.091" x2="0.319" y2="0.94" gradientUnits="objectBoundingBox"><stop offset="0" stop-color="#ecca89"/><stop offset="1" stop-color="#744d14"/></linearGradient></defs><g transform="translate(-0.298 -0.298)"><g class="b" transform="translate(0.448 0.448)"><path class="c" d="M256.624,128.312A128.312,128.312,0,1,1,128.312,0,128.313,128.313,0,0,1,256.624,128.312" transform="translate(-0.462 -0.462)"/><circle class="d" cx="107.56" cy="107.56" r="107.56" transform="translate(20.29 20.29)"/><path class="e" d="M168.024,93.373l-5.233-1.554a7.565,7.565,0,0,1-4.466-4.322l-1.365-3.533a7.623,7.623,0,0,1,.366-6.214l2.74-4.622a4.88,4.88,0,0,0-.637-5.539l-12.819-13.33a4.87,4.87,0,0,0-5.51-.858l-4.466,2.419a7.486,7.486,0,0,1-6.2.077l-4.313-1.909a7.625,7.625,0,0,1-4.139-4.652l-1.39-5.449a4.877,4.877,0,0,0-4.367-3.464L97.73,40.059a4.876,4.876,0,0,0-4.5,3.289l-1.6,5.391a7.657,7.657,0,0,1-4.314,4.492l-4.741,1.9a7.438,7.438,0,0,1-6.187-.3l-4.112-2.444a4.872,4.872,0,0,0-5.541.64L53.395,65.845a4.882,4.882,0,0,0-.854,5.51L55.057,76a7.655,7.655,0,0,1,.135,6.218c-.845,1.726-4.148,6.894-6.017,7.369l-5.289,1.349a4.88,4.88,0,0,0-3.464,4.37l-.363,18.491a4.878,4.878,0,0,0,3.291,4.5l5.233,1.555a7.57,7.57,0,0,1,4.471,4.323l1.474,3.788a7.578,7.578,0,0,1-.354,6.211L51.7,138.346a4.877,4.877,0,0,0,.638,5.542l12.82,13.33a4.877,4.877,0,0,0,5.513.859l4.092-2.217a7.5,7.5,0,0,1,6.206-.081l4.378,1.934a7.6,7.6,0,0,1,4.14,4.646l1.307,5.129a4.878,4.878,0,0,0,4.369,3.466l18.494.361a4.872,4.872,0,0,0,4.5-3.289l1.507-5.075a7.558,7.558,0,0,1,4.323-4.471l4.1-1.6a7.564,7.564,0,0,1,6.207.346l4.253,2.526a4.869,4.869,0,0,0,5.539-.64l13.335-12.817a4.875,4.875,0,0,0,.854-5.51l-2.358-4.352a7.56,7.56,0,0,1-.1-6.215l1.746-3.989a7.583,7.583,0,0,1,4.64-4.145l5.291-1.347a4.879,4.879,0,0,0,3.464-4.369l.363-18.493A4.89,4.89,0,0,0,168.024,93.373ZM105.688,79.259l7.545,15.584,17.153,2.36L117.9,109.194l3.056,17.042-15.264-8.173-15.264,8.173,3.056-17.042L80.99,97.2l17.153-2.36Z" transform="translate(22.162 22.162)"/><circle class="f" cx="128" cy="128" r="128" transform="translate(-0.15 -0.15)"/></g></g></svg>