<svg xmlns="http://www.w3.org/2000/svg" xmlns:xlink="http://www.w3.org/1999/xlink" width="282" height="266" viewBox="0 0 282 266"><defs><style>.a,.d,.e{fill:none;}.b{clip-path:url(#a);}.c{fill:#fff;}.d{stroke:#161615;}.d,.e{stroke-miterlimit:10;stroke-width:4px;}.e{stroke:#171716;}.f{opacity:0.83;fill:url(#b);}</style><clipPath id="a"><rect class="a" width="282" height="266" transform="translate(-12 0)"/></clipPath><linearGradient id="b" x1="0.5" x2="0.5" y2="1" gradientUnits="objectBoundingBox"><stop offset="0" stop-color="#ecca89"/><stop offset="1" stop-color="#744d14"/></linearGradient></defs><g transform="translate(11.463 4.209)"><g class="b" transform="translate(0.536 -4.209)"><path class="c" d="M251.377,125.688A125.688,125.688,0,1,1,125.688,0,125.689,125.689,0,0,1,251.377,125.688" transform="translate(-0.688 6.566)"/><circle class="d" cx="105.36" cy="105.36" r="105.36" transform="translate(19.64 26.894)"/><path class="e" d="M158.389,63.407c3.205-.728,5.291-4.322,4.661-8.026s-3.738-6.111-6.945-5.388L45.078,75.249c-3.205.728-5.293,4.322-4.663,8.026.556,3.259,3.029,5.516,5.8,5.516a5.194,5.194,0,0,0,1.15-.129l39.492-8.916V166.66s-.647,10.9,6.05,10.9,6.2-11.583,6.2-11.583.1-29.578.1-37.883,9.646-8.418,9.646-.34c0,5.46-.492,38.565-.492,38.565s-1.143,11.194,5.955,11.194,6.349-9.261,6.349-9.261V72.274Z" transform="translate(20.785 33.133)"/><path class="e" d="M97.484,48A11.943,11.943,0,1,1,85.542,36.059,11.942,11.942,0,0,1,97.484,48Z" transform="translate(38.524 25.778)"/><path class="e" d="M63.923,96.38h-29.4s-2.949,17.071,15.037,17.071c15.44,0,15.63-12.58,15.375-16.142A1.01,1.01,0,0,0,63.923,96.38Z" transform="translate(17.609 57.916)"/><path class="e" d="M64.423,107.757,50.511,76.165a1.3,1.3,0,0,0-2.393-.009L34.46,107.573" transform="translate(17.672 46.723)"/><path class="e" d="M139.248,80.308h-29.4S106.9,97.379,124.884,97.379c15.44,0,15.63-12.58,15.375-16.142A1.01,1.01,0,0,0,139.248,80.308Z" transform="translate(57.741 49.353)"/><path class="e" d="M139.748,91.685,125.836,60.093a1.3,1.3,0,0,0-2.393-.009L109.785,91.5" transform="translate(57.804 38.16)"/><circle class="f" cx="127" cy="127" r="127" transform="translate(-2 5)"/></g></g></svg>