<svg xmlns="http://www.w3.org/2000/svg" xmlns:xlink="http://www.w3.org/1999/xlink" width="270" height="271" viewBox="0 0 270 271"><defs><style>.a,.d,.e{fill:none;}.b{clip-path:url(#a);}.c{fill:#fff;}.d{stroke:#161615;}.d,.e{stroke-miterlimit:10;stroke-width:4px;}.e{stroke:#040405;}.f{opacity:0.83;fill:url(#b);}</style><clipPath id="a"><rect class="a" width="270" height="271" transform="translate(-0.028 -0.021)"/></clipPath><linearGradient id="b" x1="0.773" y1="0.079" x2="0.31" y2="0.917" gradientUnits="objectBoundingBox"><stop offset="0" stop-color="#ecca89"/><stop offset="1" stop-color="#764f16"/></linearGradient></defs><g transform="translate(4.322 4.06)"><g class="b" transform="translate(-4.293 -4.039)"><path class="c" d="M253.883,126.941A126.941,126.941,0,1,1,126.941,0,126.942,126.942,0,0,1,253.883,126.941" transform="translate(6.482 6.215)"/><circle class="d" cx="106.411" cy="106.411" r="106.411" transform="translate(26.606 26.746)"/><path class="e" d="M153.872,146.763H46.639c0-29.611,24.006-58.638,53.617-58.638S153.872,117.151,153.872,146.763Z" transform="translate(32.043 54.514)"/><path class="e" d="M117.209,73.312A26.539,26.539,0,1,1,90.67,46.773,26.538,26.538,0,0,1,117.209,73.312Z" transform="translate(41.63 31.85)"/><rect class="e" width="13.151" height="35.136" rx="3.728" transform="translate(85.72 89.454)"/><rect class="e" width="13.151" height="35.136" rx="3.728" transform="translate(166.268 89.454)"/><path class="e" d="M55.433,63.881s6.034-28.562,40-28.562S135.98,63.881,135.98,63.881" transform="translate(36.863 25.573)"/><path class="e" d="M76.514,88.519s2.441,6.863,7.369,6.863,7.387-6.863,7.387-6.863" transform="translate(48.417 54.73)"/><path class="e" d="M79.585,91.087,75.02,110.205l9.953,13.347L94.587,110.3,89.74,91.2" transform="translate(47.598 56.137)"/><circle class="f" cx="128.5" cy="128.5" r="128.5" transform="translate(4.972 4.979)"/></g></g></svg>