<svg xmlns="http://www.w3.org/2000/svg" xmlns:xlink="http://www.w3.org/1999/xlink" width="271" height="265" viewBox="0 0 271 265"><defs><style>.a,.d,.e{fill:none;}.b{clip-path:url(#a);}.c{fill:#fff;}.d{stroke:#161615;}.d,.e{stroke-miterlimit:10;stroke-width:4px;}.e{stroke:#040405;}.f{opacity:0.83;fill:url(#b);}</style><clipPath id="a"><rect class="a" width="271" height="265" transform="translate(0.13 0.036)"/></clipPath><linearGradient id="b" x1="0.767" y1="0.087" x2="0.317" y2="0.93" gradientUnits="objectBoundingBox"><stop offset="0" stop-color="#ecca89"/><stop offset="1" stop-color="#744d14"/></linearGradient></defs><g transform="translate(4.828 1.964)"><g class="b" transform="translate(-4.958 -2)"><path class="c" d="M257.23,128.615A128.615,128.615,0,1,1,128.615,0,128.616,128.616,0,0,1,257.23,128.615" transform="translate(7.799 3.137)"/><circle class="d" cx="107.814" cy="107.814" r="107.814" transform="translate(28.189 23.938)"/><path class="e" d="M56,166.371s21.38-87.712,72.91-111.834" transform="translate(39.636 34.14)"/><path class="e" d="M70.082,142.35s-47.66-34.833-3.413-73.591c35.36-30.974,87.712-21.471,87.712-21.471s8.5,68.357-38.922,90.819C94.627,147.975,70.082,142.35,70.082,142.35Z" transform="translate(35.002 29.238)"/><circle class="f" cx="129" cy="129" r="129" transform="translate(7.13 3.036)"/></g></g></svg>