<svg xmlns="http://www.w3.org/2000/svg" xmlns:xlink="http://www.w3.org/1999/xlink" width="164" height="164" viewBox="0 0 164 164">
  <defs>
    <style>
      .cls-1, .cls-4, .cls-5 {
        fill: none;
      }

      .cls-2 {
        clip-path: url(#clip-path);
      }

      .cls-3 {
        fill: #fff;
      }

      .cls-4 {
        stroke: #161615;
      }

      .cls-4, .cls-5 {
        stroke-miterlimit: 10;
        stroke-width: 3px;
      }

      .cls-5 {
        stroke: #171716;
      }

      .cls-6 {
        opacity: 0;
        fill: url(#linear-gradient);
      }
    </style>
    <clipPath id="clip-path">
      <rect id="Rectángulo_249" data-name="Rectángulo 249" class="cls-1" width="164" height="164"/>
    </clipPath>
    <linearGradient id="linear-gradient" x1="0.743" y1="0.112" x2="0.332" y2="0.934" gradientUnits="objectBoundingBox">
      <stop offset="0" stop-color="#ecca89"/>
      <stop offset="1" stop-color="#744d14"/>
    </linearGradient>
  </defs>
  <g id="Grupo_323" data-name="Grupo 323" class="cls-2">
    <path id="Trazado_38483" data-name="Trazado 38483" class="cls-3" d="M164,82A82,82,0,1,1,82,0a82,82,0,0,1,82,82"/>
    <circle id="Elipse_33" data-name="Elipse 33" class="cls-4" cx="68.738" cy="68.738" r="68.738" transform="translate(13.262 13.262)"/>
    <path id="Trazado_38484" data-name="Trazado 38484" class="cls-5" d="M121.837,74.13l-3.344-.993a4.836,4.836,0,0,1-2.855-2.762l-.871-2.258A4.876,4.876,0,0,1,115,64.146l1.752-2.954a3.117,3.117,0,0,0-.407-3.539l-8.192-8.52a3.114,3.114,0,0,0-3.521-.547l-2.854,1.545a4.784,4.784,0,0,1-3.965.05L95.057,48.96a4.873,4.873,0,0,1-2.645-2.973l-.888-3.481a3.118,3.118,0,0,0-2.791-2.215l-11.82-.232a3.116,3.116,0,0,0-2.876,2.1l-1.024,3.444a4.894,4.894,0,0,1-2.758,2.872l-3.029,1.215a4.745,4.745,0,0,1-3.954-.193l-2.628-1.562a3.114,3.114,0,0,0-3.541.41l-8.522,8.19a3.12,3.12,0,0,0-.546,3.521l1.607,2.967A4.886,4.886,0,0,1,49.728,67c-.539,1.1-2.65,4.406-3.844,4.709l-3.38.861a3.119,3.119,0,0,0-2.214,2.793l-.232,11.817a3.115,3.115,0,0,0,2.1,2.877l3.344.994a4.838,4.838,0,0,1,2.857,2.763l.942,2.421a4.843,4.843,0,0,1-.226,3.969l-1.584,2.667a3.117,3.117,0,0,0,.409,3.541l8.193,8.52a3.117,3.117,0,0,0,3.522.548l2.615-1.417a4.8,4.8,0,0,1,3.967-.051l2.8,1.235a4.858,4.858,0,0,1,2.646,2.97l.835,3.277a3.114,3.114,0,0,0,2.792,2.215l11.819.232a3.115,3.115,0,0,0,2.876-2.1l.964-3.242a4.833,4.833,0,0,1,2.762-2.858l2.618-1.024a4.836,4.836,0,0,1,3.968.222L103,116.55a3.111,3.111,0,0,0,3.54-.409l8.522-8.19a3.117,3.117,0,0,0,.547-3.522l-1.507-2.781a4.831,4.831,0,0,1-.063-3.972l1.115-2.549a4.85,4.85,0,0,1,2.966-2.649l3.381-.861a3.118,3.118,0,0,0,2.214-2.792l.232-11.818A3.127,3.127,0,0,0,121.837,74.13ZM81.574,103.646a21.651,21.651,0,1,1,22.071-21.219A21.65,21.65,0,0,1,81.574,103.646Z"/>
    <path id="color" class="cls-6" d="M164,82A82,82,0,1,1,82,0a82,82,0,0,1,82,82"/>
  </g>
</svg>
