<svg xmlns="http://www.w3.org/2000/svg" xmlns:xlink="http://www.w3.org/1999/xlink" width="96" height="96" viewBox="0 0 96 96"><defs><style>.a{fill:#fff;}.b,.e,.f{fill:none;}.c{clip-path:url(#a);}.d{clip-path:url(#b);}.e{stroke:#161615;}.e,.f{stroke-miterlimit:10;stroke-width:2px;}.f{stroke:#171716;}.g{opacity:0.83;fill:url(#c);}</style><clipPath id="a"><circle class="a" cx="48" cy="48" r="48" transform="translate(877.503 70)"/></clipPath><clipPath id="b"><rect class="b" width="96" height="96" transform="translate(-0.497)"/></clipPath><linearGradient id="c" x1="0.785" y1="0.133" x2="0.246" y2="0.853" gradientUnits="objectBoundingBox"><stop offset="0" stop-color="#ecca89"/><stop offset="1" stop-color="#744d14"/></linearGradient></defs><g class="c" transform="translate(-877.503 -70)"><g transform="translate(878 61.921)"><g class="d" transform="translate(0 8.079)"><path class="a" d="M95.5,47.751A47.751,47.751,0,1,1,47.751,0,47.752,47.752,0,0,1,95.5,47.751"/><circle class="e" cx="40.029" cy="40.029" r="40.029" transform="translate(7.723 7.723)"/><path class="f" d="M54.588,60.8,41.776,73.616,54.383,86.225" transform="translate(-17.448 -25.396)"/><line class="f" x1="7.757" y2="29.095" transform="translate(43.427 33.306)"/><path class="f" d="M96.474,86.225l12.812-12.812L96.678,60.8" transform="translate(-40.294 -25.396)"/><circle class="g" cx="48" cy="48" r="48" transform="translate(-0.497)"/></g></g></g></svg>