<svg xmlns="http://www.w3.org/2000/svg" xmlns:xlink="http://www.w3.org/1999/xlink" width="97" height="97" viewBox="0 0 97 97"><defs><style>.a,.g{fill:#fff;}.a{stroke:#707070;}.b,.c,.d,.h,.j,.m{fill:none;}.c,.d,.j,.m{stroke:#000;}.d,.h,.m{stroke-width:2px;}.e{clip-path:url(#a);}.f{clip-path:url(#b);}.h{stroke:#161615;}.h,.j,.m{stroke-miterlimit:10;}.i{clip-path:url(#c);}.k{clip-path:url(#d);}.l{clip-path:url(#e);}.n{opacity:0.83;fill:url(#f);}</style><clipPath id="a"><circle class="a" cx="48.5" cy="48.5" r="48.5" transform="translate(878 70)"/></clipPath><clipPath id="b"><rect class="b" width="97" height="97"/></clipPath><clipPath id="c"><rect class="c" width="28.691" height="30.707"/></clipPath><clipPath id="d"><rect class="b" width="46.349" height="42.625"/></clipPath><clipPath id="e"><rect class="d" width="57.098" height="62.889"/></clipPath><linearGradient id="f" x1="0.761" y1="0.077" x2="0.34" y2="0.943" gradientUnits="objectBoundingBox"><stop offset="0" stop-color="#ecca89"/><stop offset="1" stop-color="#744d14"/></linearGradient></defs><g class="e" transform="translate(-878 -70)"><g class="f" transform="translate(878 70)"><path class="g" d="M97,48.5A48.5,48.5,0,1,1,48.5,0,48.5,48.5,0,0,1,97,48.5"/><circle class="h" cx="40.656" cy="40.656" r="40.656" transform="translate(7.844 7.844)"/><g transform="translate(19.951 20.386)"><g transform="translate(14.049 10.855)"><g class="i" transform="translate(0 0)"><path class="j" d="M23.309,10.2A10.166,10.166,0,0,0,13.345.5a10.166,10.166,0,0,0-9.965,9.7H.5V27.414H26.325V10.2ZM13.345,3.471a7.253,7.253,0,0,1,7.1,6.726H6.241A7.253,7.253,0,0,1,13.345,3.471ZM14.364,19.04V23.2h-1.9v-4.1a2.513,2.513,0,1,1,1.9-.054Z" transform="translate(0.779 1.397)"/></g></g><g transform="translate(5.361 8.835)"><g class="k" transform="translate(0 0)"><path d="M2.095,4.19A2.095,2.095,0,1,1,4.19,2.095,2.1,2.1,0,0,1,2.095,4.19m0-3.569A1.474,1.474,0,1,0,3.569,2.095,1.476,1.476,0,0,0,2.095.621" transform="translate(1.774 2.366)"/><path d="M27.062,55.424H21.069V45.8h.621v9h5.372Z" transform="translate(-17.199 -39.246)"/><path d="M300.724,409.08a2.095,2.095,0,1,1,2.095-2.095,2.1,2.1,0,0,1-2.095,2.095m0-3.569a1.474,1.474,0,1,0,1.474,1.474,1.476,1.476,0,0,0-1.474-1.474" transform="translate(-271.56 -368.229)"/><path d="M279.919,298.148H279.3v-3.724h-3.739v-2.658h.621V293.8h3.739Z" transform="translate(-250.445 -261.022)"/><path d="M450.955,172.742a2.095,2.095,0,1,1,2.095-2.095,2.1,2.1,0,0,1-2.095,2.095m0-3.569a1.474,1.474,0,1,0,1.474,1.474,1.476,1.476,0,0,0-1.474-1.474" transform="translate(-408.475 -151.91)"/><path d="M385.126,194.741h-2.251v-.621h1.63v-4.5h3.254v.621h-2.634Z" transform="translate(-347.064 -171.193)"/><path d="M428.97,39a2.095,2.095,0,1,1,2.095-2.095A2.1,2.1,0,0,1,428.97,39m0-3.569a1.474,1.474,0,1,0,1.474,1.474,1.476,1.476,0,0,0-1.474-1.474" transform="translate(-388.352 -29.496)"/><path d="M414.725,90.155H414.1V86.043h2.866V80.612h.621v6.052h-2.866Z" transform="translate(-376.663 -71.418)"/><path d="M0,0H3.731V.621H0Z" transform="translate(6.172 21.754)"/><path d="M7.591,211.215a2.095,2.095,0,1,1,2.095-2.095,2.1,2.1,0,0,1-2.095,2.095m0-3.569a1.474,1.474,0,1,0,1.474,1.474,1.476,1.476,0,0,0-1.474-1.474" transform="translate(-3.256 -187.124)"/></g></g><g transform="translate(0)"><g class="l" transform="translate(0 0)"><path class="m" d="M2.236,5.48s23.015-11.2,50.214,0c0,0,7.591,35.247-25.959,53.493C26.491,58.973-7.441,42.276,2.236,5.48Z" transform="translate(1.397 1.088)"/></g></g></g><circle class="n" cx="48.5" cy="48.5" r="48.5"/></g></g></svg>