<svg xmlns="http://www.w3.org/2000/svg" xmlns:xlink="http://www.w3.org/1999/xlink" width="97" height="97" viewBox="0 0 97 97"><defs><style>.a{fill:#fff;}.b,.e,.f{fill:none;}.c{clip-path:url(#a);}.d{clip-path:url(#b);}.e{stroke:#161615;}.e,.f{stroke-miterlimit:10;stroke-width:2px;}.f{stroke:#171716;}.g{opacity:0.83;fill:url(#c);}</style><clipPath id="a"><circle class="a" cx="48.5" cy="48.5" r="48.5" transform="translate(878 48)"/></clipPath><clipPath id="b"><rect class="b" width="97" height="97"/></clipPath><linearGradient id="c" x1="0.743" y1="0.112" x2="0.332" y2="0.934" gradientUnits="objectBoundingBox"><stop offset="0" stop-color="#ecca89"/><stop offset="1" stop-color="#744d14"/></linearGradient></defs><g class="c" transform="translate(-878 -48)"><g transform="translate(757.695 34.154)"><g class="d" transform="translate(120.305 13.846)"><path class="a" d="M96.5,48.25A48.25,48.25,0,1,1,48.25,0,48.25,48.25,0,0,1,96.5,48.25"/><circle class="e" cx="40.446" cy="40.446" r="40.446" transform="translate(7.803 7.804)"/><path class="f" d="M88.178,60.107l-1.968-.584A2.845,2.845,0,0,1,84.53,57.9l-.513-1.329a2.869,2.869,0,0,1,.137-2.337l1.031-1.738a1.834,1.834,0,0,0-.239-2.082L80.126,45.4a1.832,1.832,0,0,0-2.072-.322l-1.679.909a2.815,2.815,0,0,1-2.333.029L72.42,45.3a2.867,2.867,0,0,1-1.556-1.749L70.341,41.5A1.834,1.834,0,0,0,68.7,40.2l-6.955-.137A1.833,1.833,0,0,0,60.052,41.3l-.6,2.027a2.88,2.88,0,0,1-1.623,1.69l-1.782.715a2.792,2.792,0,0,1-2.327-.114l-1.546-.919a1.832,1.832,0,0,0-2.084.241l-5.014,4.819a1.836,1.836,0,0,0-.321,2.072l.946,1.746a2.875,2.875,0,0,1,.051,2.339c-.317.648-1.559,2.593-2.262,2.771l-1.989.507a1.835,1.835,0,0,0-1.3,1.643l-.137,6.953A1.833,1.833,0,0,0,41.3,69.479l1.968.585a2.847,2.847,0,0,1,1.681,1.626l.554,1.425a2.85,2.85,0,0,1-.133,2.335l-.932,1.569a1.834,1.834,0,0,0,.241,2.084l4.821,5.013a1.834,1.834,0,0,0,2.072.322l1.539-.834a2.822,2.822,0,0,1,2.334-.03l1.646.727a2.859,2.859,0,0,1,1.557,1.748l.491,1.928a1.832,1.832,0,0,0,1.643,1.3l6.954.137a1.833,1.833,0,0,0,1.692-1.237l.567-1.908a2.844,2.844,0,0,1,1.625-1.682l1.54-.6a2.846,2.846,0,0,1,2.335.131l1.6.949a1.831,1.831,0,0,0,2.083-.241l5.014-4.819a1.834,1.834,0,0,0,.322-2.072L83.623,76.3a2.843,2.843,0,0,1-.037-2.337l.656-1.5A2.854,2.854,0,0,1,85.988,70.9l1.989-.507a1.835,1.835,0,0,0,1.3-1.643l.137-6.954A1.84,1.84,0,0,0,88.178,60.107ZM64.486,77.474A12.74,12.74,0,1,1,77.473,64.989,12.739,12.739,0,0,1,64.486,77.474Z" transform="translate(-16.487 -16.488)"/><path class="g" d="M96.5,48.25A48.25,48.25,0,1,1,48.25,0,48.25,48.25,0,0,1,96.5,48.25"/></g></g></g></svg>