<svg xmlns="http://www.w3.org/2000/svg" xmlns:xlink="http://www.w3.org/1999/xlink" width="96" height="96" viewBox="0 0 96 96"><defs><style>.a,.e{fill:#fff;}.a{stroke:#707070;}.b,.f,.g,.h{fill:none;}.c{clip-path:url(#a);}.d{clip-path:url(#b);}.f,.h{stroke:#161615;}.f,.g,.h{stroke-miterlimit:10;}.f{stroke-width:3px;}.g{stroke:#171716;}.g,.h{stroke-width:2px;}.i{opacity:0.83;fill:url(#c);}</style><clipPath id="a"><circle class="a" cx="48" cy="48" r="48" transform="translate(878 70)"/></clipPath><clipPath id="b"><rect class="b" width="96" height="96"/></clipPath><linearGradient id="c" x1="0.742" y1="0.092" x2="0.304" y2="0.939" gradientUnits="objectBoundingBox"><stop offset="0" stop-color="#eac887"/><stop offset="1" stop-color="#744d14"/></linearGradient></defs><g class="c" transform="translate(-878 -70)"><g class="d" transform="translate(878 70)"><path class="e" d="M96,48A48,48,0,1,1,48,0,48,48,0,0,1,96,48"/><circle class="f" cx="40.238" cy="40.238" r="40.238" transform="translate(7.763 7.763)"/><path class="g" d="M85.717,49.278,84.43,48.9a1.857,1.857,0,0,1-1.1-1.062L83,46.963a1.876,1.876,0,0,1,.09-1.528L83.76,44.3a1.2,1.2,0,0,0-.157-1.362l-3.152-3.278a1.2,1.2,0,0,0-1.355-.211l-1.1.595a1.84,1.84,0,0,1-1.526.019l-1.061-.469a1.874,1.874,0,0,1-1.018-1.144l-.342-1.34a1.2,1.2,0,0,0-1.074-.852l-4.548-.09a1.2,1.2,0,0,0-1.107.81L66.928,38.3a1.883,1.883,0,0,1-1.061,1.105l-1.165.468A1.829,1.829,0,0,1,63.18,39.8l-1.012-.6a1.2,1.2,0,0,0-1.363.157l-3.279,3.152a1.2,1.2,0,0,0-.21,1.355L57.934,45a1.88,1.88,0,0,1,.033,1.53c-.208.424-1.02,1.7-1.48,1.812l-1.3.332a1.2,1.2,0,0,0-.852,1.075l-.09,4.547a1.2,1.2,0,0,0,.81,1.108l1.287.382a1.863,1.863,0,0,1,1.1,1.063l.362.932a1.863,1.863,0,0,1-.087,1.527l-.609,1.026a1.2,1.2,0,0,0,.157,1.363l3.153,3.279a1.2,1.2,0,0,0,1.356.211l1.006-.545a1.844,1.844,0,0,1,1.526-.02l1.077.475A1.87,1.87,0,0,1,66.4,66.243l.321,1.262a1.2,1.2,0,0,0,1.075.852l4.548.089a1.2,1.2,0,0,0,1.107-.809l.371-1.248a1.857,1.857,0,0,1,1.063-1.1l1.007-.394a1.859,1.859,0,0,1,1.527.085l1.045.621a1.2,1.2,0,0,0,1.362-.157l3.28-3.152a1.2,1.2,0,0,0,.21-1.355l-.58-1.07a1.862,1.862,0,0,1-.024-1.529l.429-.981a1.865,1.865,0,0,1,1.141-1.019l1.3-.332a1.2,1.2,0,0,0,.852-1.074l.09-4.548A1.2,1.2,0,0,0,85.717,49.278ZM70.223,60.636a8.332,8.332,0,1,1,8.493-8.166A8.331,8.331,0,0,1,70.223,60.636Z" transform="translate(-22.491 -14.995)"/><circle class="h" cx="2.288" cy="2.288" r="2.288" transform="translate(35.4 62.551)"/><circle class="h" cx="2.288" cy="2.288" r="2.288" transform="translate(56.038 65.402)"/><circle class="h" cx="2.288" cy="2.288" r="2.288" transform="translate(45.525 65.402)"/><path class="h" d="M62.42,114.671V120.3H59.652v7.57" transform="translate(-24.733 -47.544)"/><path class="h" d="M99.636,119.541V123h3.718v7.57" transform="translate(-41.311 -49.563)"/><line class="h" y2="12.758" transform="translate(47.813 69.977)"/><path class="h" d="M94.66,69.572s14.834-2.353,14.834-19.086S94.66,29.573,94.66,29.573" transform="translate(-39.248 -12.261)"/><path class="h" d="M95.9,92.311l-1.458,3.273,3.04,1.995" transform="translate(-39.157 -38.274)"/><path class="h" d="M57.812,69.572S42.978,67.22,42.978,50.486,57.812,29.573,57.812,29.573" transform="translate(-17.819 -12.261)"/><path class="h" d="M64.85,31.7l1.388-3.273-2.9-1.995" transform="translate(-26.263 -10.961)"/><circle class="i" cx="48" cy="48" r="48"/></g></g></svg>