<svg xmlns="http://www.w3.org/2000/svg" xmlns:xlink="http://www.w3.org/1999/xlink" width="96" height="96" viewBox="0 0 96 96"><defs><style>.a{fill:#ff7a7a;}.b,.f,.g,.h{fill:none;}.c{clip-path:url(#a);}.d{clip-path:url(#b);}.e{fill:#fff;}.f,.g,.h{stroke:#614b28;stroke-miterlimit:10;stroke-width:2px;}.g{stroke-dasharray:8.37 8.37;}.h{stroke-dasharray:6 10;}.i{opacity:0.83;fill:url(#c);}</style><clipPath id="a"><circle class="a" cx="48" cy="48" r="48"/></clipPath><clipPath id="b"><rect class="b" width="96" height="96"/></clipPath><linearGradient id="c" x1="0.844" y1="0.088" x2="0.5" y2="1" gradientUnits="objectBoundingBox"><stop offset="0" stop-color="#f3d290"/><stop offset="1" stop-color="#775017"/></linearGradient></defs><g class="c"><g class="d"><path class="e" d="M96.063,48.032A48.032,48.032,0,1,1,48.032,0,48.032,48.032,0,0,1,96.063,48.032"/><circle class="f" cx="40.263" cy="40.263" r="40.263" transform="translate(7.768 7.768)"/><line class="f" x2="3.515" transform="translate(48.032 69.768)"/><line class="g" x2="7.354" transform="translate(56.449 69.768)"/><path class="f" d="M113.109,116.624h3.515v-3.515" transform="translate(-46.855 -46.855)"/><line class="h" y1="25.511" transform="translate(69.768 33.454)"/><path class="f" d="M116.624,48.406V44.891h-3.515" transform="translate(-46.855 -18.596)"/><line class="g" x1="7.354" transform="translate(53.997 26.295)"/><line class="f" x1="3.515" transform="translate(48.032 26.295)"/><line class="f" y2="64.439" transform="translate(48.032 15.812)"/><path class="f" d="M66.628,88.364H44.891V44.891H66.628" transform="translate(-18.596 -18.596)"/><circle class="f" cx="2.289" cy="2.289" r="2.289" transform="translate(60.945 35.465)"/><circle class="f" cx="2.289" cy="2.289" r="2.289" transform="translate(57.284 45.491)"/><circle class="f" cx="2.289" cy="2.289" r="2.289" transform="translate(60.252 55.997)"/><path class="f" d="M94.914,62.5H89.207V59.726H82" transform="translate(-33.968 -24.741)"/><path class="f" d="M91.252,81.57H86.2v3.721H82" transform="translate(-33.968 -33.79)"/><line class="f" x1="12.22" transform="translate(48.032 58.286)"/><path class="i" d="M96.063,48.032A48.032,48.032,0,1,1,48.032,0,48.032,48.032,0,0,1,96.063,48.032"/></g></g></svg>