<svg xmlns="http://www.w3.org/2000/svg" xmlns:xlink="http://www.w3.org/1999/xlink" width="96" height="96" viewBox="0 0 96 96"><defs><style>.a,.e{fill:#fff;}.a{stroke:#707070;}.b,.f,.g{fill:none;}.c{clip-path:url(#a);}.d{clip-path:url(#b);}.f{stroke:#161615;}.f,.g{stroke-miterlimit:10;stroke-width:2px;}.g{stroke:#171716;}.h{opacity:0.83;fill:url(#c);}</style><clipPath id="a"><circle class="a" cx="48" cy="48" r="48" transform="translate(878.499 72.499)"/></clipPath><clipPath id="b"><rect class="b" width="96" height="96" transform="translate(0.499 0.499)"/></clipPath><linearGradient id="c" x1="0.755" y1="0.089" x2="0.302" y2="0.957" gradientUnits="objectBoundingBox"><stop offset="0" stop-color="#ecca89"/><stop offset="1" stop-color="#744d14"/></linearGradient></defs><g class="c" transform="translate(-878.499 -72.499)"><g transform="translate(878 60.012)"><g transform="translate(0 11.988)"><g class="d"><path class="e" d="M96.5,48.249A48.249,48.249,0,1,1,48.249,0,48.25,48.25,0,0,1,96.5,48.249"/><circle class="f" cx="40.446" cy="40.446" r="40.446" transform="translate(7.803 7.803)"/><path class="g" d="M81.218,63.274c2.381-4.319,6.322-8.561,6.322-15.071,0-8.818-8.256-17.581-18.441-17.581S50.66,37.413,50.66,48.2s7.715,13.464,8.5,19.8a161.669,161.669,0,0,1,1.029,20H78.9a125.56,125.56,0,0,1,.617-20H62.451" transform="translate(-20.851 -12.604)"/><path class="g" d="M102.135,86.115c-.235.428-.456.856-.655,1.287" transform="translate(-41.769 -35.444)"/><line class="g" x2="13.367" transform="translate(41.6 61)"/><line class="g" x2="13.367" transform="translate(41.6 67.478)"/><path class="g" d="M75.5,47.481l2.837,5.86,6.45.887-4.7,4.51,1.149,6.408L75.5,62.073l-5.74,3.073,1.149-6.408-4.7-4.51,6.45-.887Z" transform="translate(-27.254 -19.543)"/><circle class="h" cx="48" cy="48" r="48" transform="translate(0.499 0.499)"/></g></g></g></g></svg>