<svg xmlns="http://www.w3.org/2000/svg" xmlns:xlink="http://www.w3.org/1999/xlink" width="164" height="164" viewBox="0 0 164 164"><defs><style>.a{fill:#ff7a7a;}.b,.f,.g,.h{fill:none;}.c{clip-path:url(#a);}.d{clip-path:url(#b);}.e{fill:#fff;}.f,.g,.h{stroke:#161615;stroke-miterlimit:10;stroke-width:3px;}.g{stroke-dasharray:8.37 8.37;}.h{stroke-dasharray:12.444 12.444;}.i{opacity:0;fill:url(#c);}</style><clipPath id="a"><circle class="a" cx="82" cy="82" r="82"/></clipPath><clipPath id="b"><rect class="b" width="164" height="164"/></clipPath><linearGradient id="c" x1="0.857" y1="0.147" x2="0.5" y2="1" gradientUnits="objectBoundingBox"><stop offset="0" stop-color="#f3d290"/><stop offset="1" stop-color="#744d14"/></linearGradient></defs><g class="c"><g class="d"><path class="e" d="M164,82A82,82,0,1,1,82,0a82,82,0,0,1,82,82"/><circle class="f" cx="68.738" cy="68.738" r="68.738" transform="translate(13.262 13.262)"/><line class="f" x2="6" transform="translate(82 119.109)"/><line class="g" x2="12.555" transform="translate(96.37 119.109)"/><path class="f" d="M113.109,119.109h6v-6"/><line class="h" y1="43.553" transform="translate(119.109 57.112)"/><path class="f" d="M119.109,50.891v-6h-6"/><line class="g" x1="12.555" transform="translate(92.184 44.891)"/><line class="f" x1="6" transform="translate(82 44.891)"/><line class="f" y2="110.011" transform="translate(82 26.994)"/><path class="f" d="M82,119.109H44.891V44.891H82"/><circle class="f" cx="3.908" cy="3.908" r="3.908" transform="translate(104.046 60.546)"/><circle class="f" cx="3.908" cy="3.908" r="3.908" transform="translate(97.796 77.662)"/><circle class="f" cx="3.908" cy="3.908" r="3.908" transform="translate(102.862 95.598)"/><path class="f" d="M104.046,64.454H94.3V59.726H82"/><path class="f" d="M97.8,81.57H89.172v6.352H82"/><line class="f" x1="20.862" transform="translate(82 99.506)"/><path class="i" d="M164,82A82,82,0,1,1,82,0a82,82,0,0,1,82,82"/></g><path class="e" d="M-12.63-19.532-96.688,171.216H-204.455l90.524-190.748Z"/></g></svg>