<svg xmlns="http://www.w3.org/2000/svg" xmlns:xlink="http://www.w3.org/1999/xlink" width="175.543" height="180.33" viewBox="0 0 175.543 180.33"><defs><style>.a{fill:none;}.b{clip-path:url(#a);}.c{fill:#fff;}</style><clipPath id="a"><rect class="a" width="175.543" height="180.33"/></clipPath></defs><g class="b"><path class="c" d="M5.079,396.637c1.9,0,3.052-.971,3.052-2.409,0-1.539-1.337-2.094-2.737-2.636-1.488-.568-2.144-.845-2.144-1.69,0-.807.593-1.249,1.64-1.249,1.274,0,1.968.681,1.968,1.526v.151a.167.167,0,0,0,.189.164h.82a.179.179,0,0,0,.189-.189v-.189c0-1.5-1.223-2.51-3.115-2.51-1.753,0-2.876.858-2.876,2.321,0,1.539,1.261,2.043,2.7,2.6,1.476.593,2.157.946,2.157,1.74,0,.757-.555,1.324-1.753,1.324-1.261,0-2.031-.643-2.031-1.476v-.239a.179.179,0,0,0-.189-.189H2.14a.179.179,0,0,0-.189.189v.3C1.951,395.666,3.174,396.637,5.079,396.637Z" transform="translate(-1.103 -219.211)"/><path class="c" d="M28.61,395.6a1.814,1.814,0,0,1-1.9-1.93V390.61a1.911,1.911,0,1,1,3.821,0v3.065A1.817,1.817,0,0,1,28.61,395.6Zm0,1.047a2.907,2.907,0,0,0,3.128-3.027v-3a2.9,2.9,0,0,0-3.128-3.014,2.9,2.9,0,0,0-3.115,3.014v3A2.9,2.9,0,0,0,28.61,396.651Z" transform="translate(-14.419 -219.212)"/><path class="c" d="M56.052,388.7v-.668a.179.179,0,0,0-.189-.189H50.389a.179.179,0,0,0-.189.189v8.45a.179.179,0,0,0,.189.189h.832a.178.178,0,0,0,.189-.189v-3.67a.06.06,0,0,1,.063-.063h2.989a.178.178,0,0,0,.189-.189v-.669a.179.179,0,0,0-.189-.189H51.474a.06.06,0,0,1-.063-.063v-2.687a.06.06,0,0,1,.063-.063h4.389A.179.179,0,0,0,56.052,388.7Z" transform="translate(-28.391 -219.342)"/><path class="c" d="M77.526,387.84H71.611a.179.179,0,0,0-.189.189v.681a.178.178,0,0,0,.189.189h2.232a.06.06,0,0,1,.063.063v7.517a.179.179,0,0,0,.189.189h.832a.179.179,0,0,0,.189-.189v-7.517a.06.06,0,0,1,.063-.063h2.346a.179.179,0,0,0,.189-.189v-.681A.179.179,0,0,0,77.526,387.84Z" transform="translate(-40.393 -219.343)"/><path class="c" d="M96.3,396.668h.82a.194.194,0,0,0,.2-.164l1.576-6.432c.013-.05.063-.05.076,0L100.6,396.5a.194.194,0,0,0,.2.164h.871a.193.193,0,0,0,.2-.164l2.257-8.451a.153.153,0,0,0-.164-.214h-.845a.193.193,0,0,0-.2.164l-1.64,6.205c-.013.05-.063.05-.076,0L99.575,388a.193.193,0,0,0-.2-.164h-.9a.192.192,0,0,0-.2.164l-1.539,6.205c-.013.05-.063.05-.076,0L95.021,388a.192.192,0,0,0-.2-.164h-.908c-.126,0-.189.076-.152.214l2.321,8.451A.207.207,0,0,0,96.3,396.668Z" transform="translate(-53.02 -219.343)"/><path class="c" d="M124.936,394.02l1.45-4.7c.013-.063.063-.063.076,0l1.463,4.7c.013.051-.013.076-.05.076h-2.888C124.948,394.1,124.923,394.07,124.936,394.02Zm3.973,2.649h.908c.139,0,.189-.088.151-.214l-2.75-8.463a.2.2,0,0,0-.214-.151h-1.16a.2.2,0,0,0-.214.151l-2.724,8.463c-.038.139.013.214.151.214h.9a.2.2,0,0,0,.214-.152l.442-1.412c.012-.025.025-.05.063-.05h3.519c.038,0,.05.025.063.05l.441,1.412A.2.2,0,0,0,128.909,396.668Z" transform="translate(-69.502 -219.343)"/><path class="c" d="M149.945,388.857h2.094a1.463,1.463,0,1,1,0,2.926h-2.094a.06.06,0,0,1-.063-.063v-2.8A.06.06,0,0,1,149.945,388.857Zm3.809,7.794h.858c.139,0,.2-.088.139-.227L152.96,392.7a.053.053,0,0,1,.038-.076,2.26,2.26,0,0,0,1.728-2.308,2.383,2.383,0,0,0-2.535-2.51h-3.33a.179.179,0,0,0-.189.189v8.463a.179.179,0,0,0,.189.189h.832a.179.179,0,0,0,.189-.189v-3.67a.059.059,0,0,1,.063-.063h1.779a.1.1,0,0,1,.076.05l1.74,3.733A.222.222,0,0,0,153.755,396.651Z" transform="translate(-84.081 -219.326)"/><path class="c" d="M178.428,388.7v-.668a.179.179,0,0,0-.19-.189h-5.486a.179.179,0,0,0-.189.189v8.45a.179.179,0,0,0,.189.189h5.486a.179.179,0,0,0,.19-.189v-.668a.179.179,0,0,0-.19-.189h-4.4a.06.06,0,0,1-.063-.063v-2.75a.06.06,0,0,1,.063-.063h3a.178.178,0,0,0,.189-.189v-.669a.179.179,0,0,0-.189-.189h-3a.06.06,0,0,1-.063-.063v-2.687a.06.06,0,0,1,.063-.063h4.4A.179.179,0,0,0,178.428,388.7Z" transform="translate(-97.593 -219.342)"/><path class="c" d="M213.788,388.7v-.668a.179.179,0,0,0-.189-.189h-5.486a.179.179,0,0,0-.189.189v8.45a.179.179,0,0,0,.189.189H213.6a.179.179,0,0,0,.189-.189v-.668a.179.179,0,0,0-.189-.189h-4.4a.06.06,0,0,1-.063-.063v-2.75a.06.06,0,0,1,.063-.063h3a.178.178,0,0,0,.189-.189v-.669a.179.179,0,0,0-.189-.189h-3a.06.06,0,0,1-.063-.063v-2.687a.06.06,0,0,1,.063-.063h4.4A.179.179,0,0,0,213.788,388.7Z" transform="translate(-117.591 -219.342)"/><path class="c" d="M233.179,396.668h.921a.2.2,0,0,0,.215-.152l2.7-8.463c.038-.139-.025-.214-.164-.214h-.87a.216.216,0,0,0-.215.164l-2.055,6.874c-.013.063-.063.063-.076,0L231.564,388a.215.215,0,0,0-.214-.164h-.9c-.139,0-.2.076-.163.214l2.674,8.463A.2.2,0,0,0,233.179,396.668Z" transform="translate(-130.235 -219.343)"/><path class="c" d="M257.05,395.6a1.814,1.814,0,0,1-1.9-1.93V390.61a1.911,1.911,0,1,1,3.821,0v3.065A1.817,1.817,0,0,1,257.05,395.6Zm0,1.047a2.907,2.907,0,0,0,3.128-3.027v-3a3.123,3.123,0,0,0-6.243,0v3A2.9,2.9,0,0,0,257.05,396.651Z" transform="translate(-143.613 -219.212)"/><path class="c" d="M278.829,396.668h5.36a.179.179,0,0,0,.189-.189v-.668a.179.179,0,0,0-.189-.189h-4.276a.06.06,0,0,1-.063-.063v-7.529a.179.179,0,0,0-.189-.189h-.832a.179.179,0,0,0-.189.189v8.45A.179.179,0,0,0,278.829,396.668Z" transform="translate(-157.585 -219.343)"/><path class="c" d="M304.185,396.769a2.834,2.834,0,0,0,3.09-2.9v-5.839a.179.179,0,0,0-.189-.189h-.832a.179.179,0,0,0-.189.189v5.865a1.886,1.886,0,0,1-3.771,0v-5.865a.179.179,0,0,0-.189-.189h-.832a.179.179,0,0,0-.189.189v5.839A2.844,2.844,0,0,0,304.185,396.769Z" transform="translate(-170.277 -219.342)"/><path class="c" d="M330.816,387.84H324.9a.179.179,0,0,0-.189.189v.681a.178.178,0,0,0,.189.189h2.232a.06.06,0,0,1,.063.063v7.517a.179.179,0,0,0,.189.189h.832a.179.179,0,0,0,.189-.189v-7.517a.06.06,0,0,1,.063-.063h2.346a.179.179,0,0,0,.189-.189v-.681A.179.179,0,0,0,330.816,387.84Z" transform="translate(-183.641 -219.343)"/><path class="c" d="M.436,0h.34a.435.435,0,0,1,.435.435V8.393a.435.435,0,0,1-.435.435H.436A.436.436,0,0,1,0,8.392V.436A.436.436,0,0,1,.436,0Z" transform="translate(151.514 168.497)"/><path class="c" d="M364.957,395.6a1.814,1.814,0,0,1-1.9-1.93V390.61a1.911,1.911,0,1,1,3.821,0v3.065A1.817,1.817,0,0,1,364.957,395.6Zm0,1.047a2.907,2.907,0,0,0,3.128-3.027v-3a3.123,3.123,0,0,0-6.243,0v3A2.9,2.9,0,0,0,364.957,396.651Z" transform="translate(-204.64 -219.212)"/><path class="c" d="M386.735,396.668h.832a.179.179,0,0,0,.189-.189l-.013-6.192c0-.063.05-.076.076-.026l3.86,6.281a.24.24,0,0,0,.227.126h.82a.179.179,0,0,0,.189-.189v-8.45a.179.179,0,0,0-.189-.189h-.832a.179.179,0,0,0-.189.189v6.155c0,.063-.051.076-.076.025l-3.86-6.243a.24.24,0,0,0-.227-.126h-.807a.179.179,0,0,0-.189.189v8.45A.179.179,0,0,0,386.735,396.668Z" transform="translate(-218.611 -219.343)"/></g><path class="c" d="M90.331,110.586,53.407,89.659V55.049L27.249,29.461v75.391l62.378,35.918,63.787-36.823L132.889,85.115Z" transform="translate(-15.41 -16.661)"/><g class="b"><path class="c" d="M158.088.577,94.3,37.4l20.524,18.831L157.384,30.76l36.924,20.927V86.3l26.159,25.589V36.495Z" transform="translate(-53.332 -0.326)"/><path class="c" d="M30.927,335.062c5.432,0,8.858-2.8,8.858-7.023,0-4.706-4.359-6.055-7.508-7.2-3.84-1.349-5.362-1.972-5.362-3.771,0-1.626,1.246-2.595,3.46-2.595,2.906,0,4.463,1.7,4.463,3.494v.346c0,.208.208.346.589.346h3.632a.53.53,0,0,0,.588-.588v-.345c0-4.464-3.771-7.439-9.1-7.439-4.948,0-8.442,2.595-8.442,6.85,0,4.567,4.152,6.193,7.75,7.439,3.287,1.211,5.052,1.834,5.052,3.6,0,1.384-.969,2.7-3.6,2.7-2.8,0-4.567-1.522-4.567-3.287V327.1c0-.277-.207-.45-.588-.45H22.52a.529.529,0,0,0-.588.588v.588C21.932,332.225,25.5,335.062,30.927,335.062Z" transform="translate(-12.404 -175.485)"/><path class="c" d="M1.354,0h2.17A1.354,1.354,0,0,1,4.878,1.354V22.866a1.353,1.353,0,0,1-1.353,1.353H1.354A1.354,1.354,0,0,1,0,22.865V1.354A1.354,1.354,0,0,1,1.354,0Z" transform="translate(30.806 135.082)"/><path class="c" d="M92.439,335.147h15.6a.53.53,0,0,0,.588-.588v-3.01a.53.53,0,0,0-.588-.588H96.937a.183.183,0,0,1-.208-.208V311.516a.529.529,0,0,0-.588-.588h-3.7a.529.529,0,0,0-.588.588v23.043A.53.53,0,0,0,92.439,335.147Z" transform="translate(-51.946 -175.845)"/><path class="c" d="M139.233,335.147h4.013a.637.637,0,0,0,.657-.484l7.127-23.077c.139-.381-.069-.657-.484-.657h-3.909a.667.667,0,0,0-.658.519l-4.463,16.642a.139.139,0,0,1-.277,0l-4.532-16.676a.637.637,0,0,0-.657-.484h-4.013c-.415,0-.588.277-.485.657l7.024,23.077A.637.637,0,0,0,139.233,335.147Z" transform="translate(-74.382 -175.845)"/><path class="c" d="M199.93,314.526v-3.01a.529.529,0,0,0-.588-.588H183.7a.529.529,0,0,0-.588.588v23.043a.53.53,0,0,0,.588.588h15.638a.53.53,0,0,0,.588-.588v-3.01a.53.53,0,0,0-.588-.588H188.2a.2.2,0,0,1-.208-.208v-5.536a.2.2,0,0,1,.208-.208h7.231a.53.53,0,0,0,.588-.588v-3.01a.53.53,0,0,0-.588-.588H188.2a.183.183,0,0,1-.208-.207v-5.294a.2.2,0,0,1,.208-.208h11.141A.53.53,0,0,0,199.93,314.526Z" transform="translate(-103.561 -175.845)"/><path class="c" d="M234.709,315.07h4.5a3.072,3.072,0,0,1,3.287,3.148,3.038,3.038,0,0,1-3.287,3.079h-4.5a.2.2,0,0,1-.208-.208v-5.813A.184.184,0,0,1,234.709,315.07Zm8.338,20.033h3.91c.45,0,.623-.311.415-.692l-4.567-9.549a.175.175,0,0,1,.1-.277,6.454,6.454,0,0,0,4.428-6.435c0-4.36-2.941-7.3-7.4-7.3h-9.722a.529.529,0,0,0-.588.588v23.077a.53.53,0,0,0,.588.588h3.7a.529.529,0,0,0,.588-.588v-9.238a.183.183,0,0,1,.208-.208h3.148a.26.26,0,0,1,.242.173l4.255,9.411A.757.757,0,0,0,243.047,335.1Z" transform="translate(-129.863 -175.801)"/><path class="c" d="M303.495,321.781h-4.359a.184.184,0,0,1-.208-.208v-6.3a.184.184,0,0,1,.208-.208h4.359a3.36,3.36,0,1,1,0,6.712Zm.727-10.933h-9.584a.529.529,0,0,0-.588.588v23.077a.529.529,0,0,0,.588.588h3.7a.529.529,0,0,0,.588-.588V325.9a.2.2,0,0,1,.208-.208h4.878c4.706,0,7.854-2.941,7.854-7.334C311.868,313.858,308.823,310.848,304.222,310.848Z" transform="translate(-166.3 -175.8)"/><path class="c" d="M351.365,330.925h-4.29a.183.183,0,0,1-.207-.208v-5.674a.2.2,0,0,1,.207-.208h4.256c2.18,0,3.425,1.142,3.425,3.045S353.511,330.925,351.365,330.925Zm-4.29-15.812h4.013c2.18,0,3.425,1.107,3.425,2.906,0,1.764-1.246,2.837-3.425,2.837h-4.013a.183.183,0,0,1-.207-.208v-5.328A.184.184,0,0,1,347.075,315.113Zm9.307,7.37a4.977,4.977,0,0,0,2.906-4.913c0-4.705-3.045-6.643-8.2-6.643h-8.511a.53.53,0,0,0-.589.588v23.043a.53.53,0,0,0,.589.588h8.788c4.636,0,8.269-2.076,8.269-6.781a5.723,5.723,0,0,0-3.252-5.6A.144.144,0,0,1,356.382,322.483Z" transform="translate(-193.412 -175.845)"/></g></svg>