<svg xmlns="http://www.w3.org/2000/svg" xmlns:xlink="http://www.w3.org/1999/xlink" width="169.94" height="101.622" viewBox="0 0 169.94 101.622"><defs><style>.a{fill:none;}.b,.d,.e{fill:rgba(255,255,255,0);stroke:#fff;}.c{clip-path:url(#a);}.d{stroke-width:0.3px;}.e{stroke-width:0.2px;}</style><clipPath id="a"><rect class="a" width="169.94" height="101.621" transform="translate(-6 -7)"/></clipPath></defs><g transform="translate(6 7)"><path class="b" d="M313.6,0l-7.789,4.43V9l8.863,5.05v3.121h6.708V4.433Z" transform="translate(-216.654)"/><path class="b" d="M244.956,22.2,226.19,11.508,207.4,22.192V52.917h15.931V30.981l2.855-1.493,2.834,1.482V52.917h15.932ZM234.145,47.8l0-19.914L226.19,23.71l-7.976,4.171V47.8h-5.69V25.166l13.666-7.88,13.645,7.868V47.8Z" transform="translate(-146.936 -8.153)"/><g transform="translate(0 0)"><g class="c"><path class="d" d="M3.653,214.42,0,204.386H1.429l1.768,5c.516,1.473,1.033,2.956,1.255,3.873H4.48c.211-.821.781-2.371,1.308-3.826l1.84-5.05H9L5.224,214.42Z" transform="translate(0 -144.799)"/><path class="d" d="M81.919,202.44H76.929v3.551H82.41l-.172,1.14H75.624V197.1h6.535v1.14h-5.23V201.3h4.991Zm-.067-8.343-2.474,1.986H78.066L80.19,194.1Z" transform="translate(-53.576 -137.51)"/><path class="d" d="M144.673,214.42V204.386h1.762c1.439,2.346,4.57,7.337,5.132,8.428h.02c-.1-1.288-.087-2.87-.087-4.51v-3.918h1.258V214.42H151.1c-1.326-2.178-4.591-7.547-5.22-8.673h-.019c.072,1.143.073,2.844.073,4.655v4.018Z" transform="translate(-102.495 -144.799)"/><path class="d" d="M221.338,204.386h3.586a4.544,4.544,0,0,1,4.728,4.915c0,2.968-1.859,5.119-4.773,5.119h-3.541Zm1.33,8.9h2.106c2.361,0,3.485-1.691,3.485-3.961,0-1.981-1.024-3.813-3.48-3.813h-2.11Z" transform="translate(-156.809 -144.799)"/><path class="d" d="M302.864,209.73h-4.99v3.551h5.481l-.171,1.14h-6.614V204.386H303.1v1.14h-5.229v3.064h4.99Z" transform="translate(-210.107 -144.799)"/><path class="d" d="M365.618,214.42V204.386h1.761c1.439,2.346,4.57,7.337,5.132,8.428h.02c-.1-1.288-.087-2.87-.087-4.51v-3.918H373.7V214.42h-1.655c-1.326-2.178-4.591-7.547-5.22-8.673h-.019c.072,1.143.073,2.844.073,4.655v4.018Z" transform="translate(-259.025 -144.799)"/><path class="d" d="M449.378,209c0,2.76-1.548,5.219-4.709,5.219-2.954,0-4.6-2.283-4.6-5.162s1.683-5.161,4.718-5.161c2.825,0,4.593,2.122,4.593,5.1m-7.918.014c0,2.168,1.11,4.07,3.267,4.07,2.33,0,3.257-1.92,3.257-4.064,0-2.162-1.051-3.989-3.254-3.989-2.274,0-3.271,1.843-3.271,3.983" transform="translate(-311.769 -144.448)"/><path class="d" d="M517.469,211.277a2.292,2.292,0,0,0,2.549,1.853c1.565,0,2.185-.734,2.185-1.682,0-1.006-.495-1.57-2.506-2.057-2.364-.574-3.185-1.384-3.185-2.8,0-1.49,1.1-2.7,3.339-2.7,2.39,0,3.373,1.381,3.508,2.7H522a1.941,1.941,0,0,0-2.2-1.625c-1.222,0-1.908.55-1.908,1.506s.566,1.313,2.325,1.739c2.861.7,3.366,1.81,3.366,3.1,0,1.618-1.2,2.887-3.653,2.887-2.524,0-3.61-1.379-3.818-2.919Z" transform="translate(-365.646 -144.448)"/><path class="e" d="M132.484,271.173h-2.16v-.759h5.216v.759h-2.163V277.1h-.893Z" transform="translate(-92.329 -191.577)"/><path class="e" d="M179.091,270.413v4.025c0,1.58.866,2.008,1.723,2.008,1,0,1.709-.461,1.709-2.008v-4.025h.893v3.979c0,2.17-1.2,2.793-2.622,2.793a2.4,2.4,0,0,1-2.6-2.731v-4.042Z" transform="translate(-126.242 -191.577)"/><path class="e" d="M263.04,270.414h2.539a1.944,1.944,0,0,1,2.192,1.946,1.977,1.977,0,0,1-2.246,1.994h-1.593V277.1h-.893Zm.893,3.194h1.549c.916,0,1.375-.447,1.375-1.225a1.181,1.181,0,0,0-1.34-1.222h-1.584Z" transform="translate(-186.353 -191.577)"/><rect class="e" width="0.887" height="6.688" transform="translate(90.367 78.837)"/><path class="e" d="M344.589,275.006a1.528,1.528,0,0,0,1.7,1.235c1.043,0,1.457-.489,1.457-1.121,0-.671-.33-1.047-1.671-1.371-1.576-.383-2.123-.922-2.123-1.863,0-.993.732-1.8,2.226-1.8a2.066,2.066,0,0,1,2.338,1.8h-.9a1.294,1.294,0,0,0-1.468-1.084c-.814,0-1.271.367-1.271,1s.378.875,1.55,1.159c1.907.464,2.244,1.207,2.244,2.065,0,1.079-.8,1.924-2.435,1.924a2.253,2.253,0,0,1-2.545-1.945Z" transform="translate(-243.487 -191.343)"/><path class="e" d="M396.731,273.487c0,1.839-1.032,3.478-3.139,3.478-1.969,0-3.068-1.522-3.068-3.44a3.123,3.123,0,0,1,3.145-3.44c1.883,0,3.061,1.414,3.061,3.4m-5.277.009c0,1.446.74,2.713,2.178,2.713,1.553,0,2.171-1.28,2.171-2.709s-.7-2.659-2.169-2.659c-1.516,0-2.18,1.228-2.18,2.655" transform="translate(-276.671 -191.343)"/></g></g></g></svg>