<svg xmlns="http://www.w3.org/2000/svg" xmlns:xlink="http://www.w3.org/1999/xlink" width="158" height="149.219" viewBox="0 0 158 149.219"><defs><style>.a{fill:none;}.b{clip-path:url(#a);}.c{fill:rgba(255,255,255,0);stroke:#fff;}.d{fill:#fff;stroke:rgba(255,255,255,0);}</style><clipPath id="a"><rect class="a" width="158" height="149.219"/></clipPath></defs><g class="b"><path class="c" d="M.91,0H2.487A.911.911,0,0,1,3.4.911V25.677a.91.91,0,0,1-.91.91H.91a.91.91,0,0,1-.91-.91V.91A.91.91,0,0,1,.91,0Z" transform="translate(30.179 83.474)"/><path class="c" d="M197.49,314.813a.213.213,0,0,1,.241.241v16.8a9.574,9.574,0,0,1-9.395,9.543,9.007,9.007,0,0,1-6.851-2.841,9.449,9.449,0,0,1-2.859-6.907v-16.6a.213.213,0,0,1,.242-.241h2.9a.213.213,0,0,1,.241.241V331.69a6.257,6.257,0,0,0,1.708,4.382,6.156,6.156,0,0,0,10.639-4.215v-16.8a.213.213,0,0,1,.241-.241Z" transform="translate(-131.262 -231.339)"/><path class="c" d="M313.374,315.054a.348.348,0,0,1,.353-.241h2.636a.369.369,0,0,1,.353.483l-8.894,25.863a.317.317,0,0,1-.334.241H305.13a.317.317,0,0,1-.334-.241L295.9,315.3a.357.357,0,0,1,.056-.334.353.353,0,0,1,.3-.148h2.636a.317.317,0,0,1,.334.241l7.074,20.59Z" transform="translate(-217.429 -231.339)"/><path class="c" d="M415.187,314.6a.217.217,0,0,1,.223.148l10.861,26.16a.21.21,0,0,1-.019.223.234.234,0,0,1-.2.111h-2.971a.217.217,0,0,1-.223-.149L418.6,330.849H409.19L404.938,341.1a.216.216,0,0,1-.223.149h-2.971a.234.234,0,0,1-.2-.111.209.209,0,0,1-.019-.223l10.862-26.16a.238.238,0,0,1,.223-.148Zm2.061,13.015-3.342-8.077-3.36,8.077Z" transform="translate(-295.039 -231.184)"/><path class="d" d="M8.079,487.775a13.21,13.21,0,0,1-4.252-2.915,13.4,13.4,0,0,1-2.859-4.345A13.2,13.2,0,0,1,0,475.242a12.931,12.931,0,0,1,3.639-8.856,12.923,12.923,0,0,1,8.615-4.159,13.051,13.051,0,0,1,8.318,2.1.223.223,0,0,1,.056.353l-.687,1.039a.231.231,0,0,1-.353.075,11.268,11.268,0,0,0-7.167-1.82,11.19,11.19,0,0,0-7.538,3.658,11.161,11.161,0,0,0-3.138,7.742,11.621,11.621,0,0,0,.873,4.549A11.76,11.76,0,0,0,8.8,486.178a11.529,11.529,0,0,0,10.806-.928.217.217,0,0,1,.353.074l.706,1.021a.218.218,0,0,1-.074.353,13.024,13.024,0,0,1-7.259,2.154,13.172,13.172,0,0,1-5.254-1.077" transform="translate(0 -339.633)"/><path class="d" d="M120.112,462.35a.251.251,0,0,1,.241.148L131.2,488.621a.241.241,0,0,1-.019.242.251.251,0,0,1-.223.111h-1.337a.25.25,0,0,1-.241-.167l-4.512-10.88h-11.1l-4.53,10.88a.25.25,0,0,1-.241.167h-1.337a.282.282,0,0,1-.223-.111.24.24,0,0,1-.019-.242L118.256,462.5a.251.251,0,0,1,.241-.148Zm4.029,13.832-4.827-11.622-4.827,11.622Z" transform="translate(-78.914 -339.756)"/><path class="d" d="M233.943,462.28a7.1,7.1,0,0,1,5.032,12.179,7.155,7.155,0,0,1-5.2,2.135h-7.891v12.068a.23.23,0,0,1-.26.26h-1.244a.23.23,0,0,1-.26-.26V462.54a.23.23,0,0,1,.26-.26Zm0,12.569a5.412,5.412,0,0,0,0-10.824h-8.058v10.824Z" transform="translate(-164.694 -339.704)"/><path class="d" d="M.881,0h0a.882.882,0,0,1,.882.882V25.725a.881.881,0,0,1-.881.881h0A.881.881,0,0,1,0,25.725V.881A.881.881,0,0,1,.881,0Z" transform="translate(85.732 122.613)"/><path class="d" d="M372.982,462.419a.23.23,0,0,1,.26.26v1.244a.23.23,0,0,1-.26.26H365.5v24.582a.23.23,0,0,1-.26.26H364c-.161,0-.242-.086-.242-.26V464.183h-7.482a.23.23,0,0,1-.26-.26v-1.244a.23.23,0,0,1,.26-.26Z" transform="translate(-261.614 -339.806)"/><path class="d" d="M437.253,462.35a.251.251,0,0,1,.241.148l10.843,26.123a.241.241,0,0,1-.019.242.251.251,0,0,1-.223.111h-1.337a.25.25,0,0,1-.241-.167l-4.512-10.88H430.9l-4.53,10.88a.25.25,0,0,1-.241.167H424.8a.281.281,0,0,1-.223-.111.24.24,0,0,1-.019-.242L435.4,462.5a.251.251,0,0,1,.241-.148Zm4.029,13.832-4.827-11.622-4.827,11.622Z" transform="translate(-311.964 -339.756)"/><path class="d" d="M541.521,488.923a.23.23,0,0,1-.26-.26V462.521q0-.241.26-.241h1.244q.26,0,.26.241v24.638h12.458a.23.23,0,0,1,.26.26v1.244a.23.23,0,0,1-.26.26Z" transform="translate(-397.743 -339.704)"/><path class="c" d="M183.52,0l30.048,64.891,7.393-19.684L201.1.028Z" transform="translate(-134.859 0)"/><path class="c" d="M284.769,21.682,275.875.145,258.285.117l19.053,41.352Z" transform="translate(-189.799 -0.086)"/><path class="c" d="M347.8.28l-.88-.023L333.077.235l7.987,17.98Z" transform="translate(-244.76 -0.172)"/></g></svg>