<svg xmlns="http://www.w3.org/2000/svg" xmlns:xlink="http://www.w3.org/1999/xlink" width="228.954" height="84.833" viewBox="0 0 228.954 84.833"><defs><style>.a{fill:none;}.b{clip-path:url(#a);}.c{fill:#fff;}</style><clipPath id="a"><rect class="a" width="228.954" height="84.833"/></clipPath></defs><g class="b"><path class="c" d="M167.5,18.068s-41.02-21-64.46-16.6c0,0-17.824,2.2-42.241,6.593S14.406,10.5,0,0C0,0,17.58,23.928,57.135,15.138S120.619-1.954,167.5,18.068" transform="translate(8.177 6.815)"/><path class="c" d="M14.144,37.6,8.772,53.71A73.118,73.118,0,0,1,36.119,42.967C25.375,43.455,14.144,37.6,14.144,37.6" transform="translate(2.823 -16.131)"/><path class="c" d="M264.34,43.243c-35.648,1.953-57.868,2.686-97.667-4.4,0,0,14.65,12.7,58.6,10.255s72.009-4.883,93.14,5.372c0,0-18.424-13.185-54.072-11.232" transform="translate(-93.547 -16.896)"/><path class="c" d="M36.864,103.049v1.336h-11.4V133.42H20.4V104.385H8.994v-1.336Z" transform="translate(2.688 -56.079)"/><path class="c" d="M90.951,101.257a15.6,15.6,0,0,1,5.012.8,16.014,16.014,0,0,1,7.81,5.691,15.839,15.839,0,0,1,2.268,4.366,16,16,0,0,1,0,10.025,15.825,15.825,0,0,1-2.268,4.364,16.232,16.232,0,0,1-3.444,3.444,15.855,15.855,0,0,1-18.757,0,16,16,0,0,1-5.69-7.808,16,16,0,0,1,0-10.025,15.916,15.916,0,0,1,10.056-10.057,15.6,15.6,0,0,1,5.012-.8m0,1.334a8.028,8.028,0,0,0-1.993.254,9.126,9.126,0,0,0-3.55,1.886,12.8,12.8,0,0,0-2.618,3.073,16.324,16.324,0,0,0-1.875,4.5,19.535,19.535,0,0,0,0,9.643,16.284,16.284,0,0,0,1.875,4.5,12.807,12.807,0,0,0,2.618,3.073,9.133,9.133,0,0,0,3.55,1.887,8.026,8.026,0,0,0,1.993.254,7.855,7.855,0,0,0,1.991-.254,9.131,9.131,0,0,0,3.55-1.887,12.821,12.821,0,0,0,2.617-3.073,16.262,16.262,0,0,0,1.876-4.5,19.535,19.535,0,0,0,0-9.643,16.3,16.3,0,0,0-1.876-4.5,12.812,12.812,0,0,0-2.617-3.073,9.123,9.123,0,0,0-3.55-1.886,7.856,7.856,0,0,0-1.991-.254" transform="translate(-37.644 -54.985)"/><path class="c" d="M163.385,133.42V120.514l-11.677-17.465h6.082L168.134,118.5l10.406-15.451h1.568l-11.656,17.465V133.42Z" transform="translate(-84.414 -56.079)"/><path class="c" d="M287.4,106.64a13.118,13.118,0,0,0-4.027-2.956,11.193,11.193,0,0,0-4.831-1.071,11.376,11.376,0,0,0-4.663,1,12.569,12.569,0,0,0-3.327,2.172,14.106,14.106,0,0,0-2.543,3.062,15.447,15.447,0,0,0-1.717,4,16.384,16.384,0,0,0,0,8.583,15.459,15.459,0,0,0,1.717,4,14.161,14.161,0,0,0,2.543,3.062,12.6,12.6,0,0,0,3.327,2.172,11.368,11.368,0,0,0,4.663,1,11.192,11.192,0,0,0,4.831-1.069,13.15,13.15,0,0,0,4.027-2.956l.954.975a16.425,16.425,0,0,1-5.288,3.284A16.95,16.95,0,0,1,276.951,133a16.774,16.774,0,0,1-7.566-1.769,16.393,16.393,0,0,1-5.977-5.055,15.463,15.463,0,0,1,0-18.1,16.385,16.385,0,0,1,5.977-5.055,16.779,16.779,0,0,1,7.566-1.769,16.99,16.99,0,0,1,6.115,1.122,16.47,16.47,0,0,1,5.288,3.286Z" transform="translate(-150.802 -54.985)"/><path class="c" d="M343.854,122.951,338.98,133.42H337.5l14.158-30.371h1.483L367.3,133.42h-5.6l-4.875-10.469Zm6.485-13.9-5.849,12.568h11.7Z" transform="translate(-197.805 -56.079)"/><path class="c" d="M423.756,133.42V103.049H438.21a8.25,8.25,0,0,1,4.323,1.167,8.9,8.9,0,0,1,3.117,3.115,8.607,8.607,0,0,1,0,8.647,8.9,8.9,0,0,1-3.117,3.115,8.266,8.266,0,0,1-4.323,1.165l9.579,13.163h-6.273l-9.58-13.163h-3.115V133.42Zm5.065-14.5h5.68a7.269,7.269,0,0,0,0-14.538h-5.68Z" transform="translate(-250.451 -56.079)"/><path class="c" d="M512.253,106.193a15.766,15.766,0,0,0-2.352-1.547,14.312,14.312,0,0,0-3.412-1.293,16.379,16.379,0,0,0-3.518-.38h-.509a9.273,9.273,0,0,0-2.151.254,7.465,7.465,0,0,0-2.023.805,5.451,5.451,0,0,0-1.325,1.06,3.76,3.76,0,0,0-.837,1.483,4.438,4.438,0,0,0-.127,1.039,5.767,5.767,0,0,0,.074.762,3.762,3.762,0,0,0,.456,1.208,7.63,7.63,0,0,0,1.4,1.78,11.683,11.683,0,0,0,1.78,1.4q1.781,1.124,3.645,2.1c.17.1.332.192.488.276q1.357.72,2.67,1.472a28.479,28.479,0,0,1,2.543,1.643,13.939,13.939,0,0,1,1.865,1.622,9.263,9.263,0,0,1,1.462,1.982,6.415,6.415,0,0,1,.848,3.2c0,.142-.007.29-.021.446a6.744,6.744,0,0,1-.764,2.648,7.334,7.334,0,0,1-1.589,2.046,9.1,9.1,0,0,1-2.162,1.451,11.619,11.619,0,0,1-2.914,1.018,16.251,16.251,0,0,1-3.083.339h-.487a21.777,21.777,0,0,1-3.03-.211,16.757,16.757,0,0,1-3.306-.805,14.978,14.978,0,0,1-5-2.968l.954-.954a14.263,14.263,0,0,0,2.352,1.547,13.8,13.8,0,0,0,3.412,1.293,17.039,17.039,0,0,0,3.688.4h.339a10.175,10.175,0,0,0,2.151-.275,7.49,7.49,0,0,0,2.023-.805,5.29,5.29,0,0,0,1.314-1.06,4.081,4.081,0,0,0,.848-1.483,3.3,3.3,0,0,0,.148-.954,5.686,5.686,0,0,0-.085-.826,4.017,4.017,0,0,0-.467-1.231,7.5,7.5,0,0,0-1.4-1.769,12.857,12.857,0,0,0-1.8-1.409q-1.759-1.122-3.624-2.1-.255-.146-.531-.3-1.335-.7-2.638-1.453a28.576,28.576,0,0,1-2.532-1.643,13.849,13.849,0,0,1-1.865-1.62,9.293,9.293,0,0,1-1.463-1.982,6.551,6.551,0,0,1-.826-3.2v-.446a6.95,6.95,0,0,1,.742-2.649,7.813,7.813,0,0,1,1.6-2.044,8.937,8.937,0,0,1,2.151-1.453,11.981,11.981,0,0,1,2.926-1.016,16.026,16.026,0,0,1,3.094-.339h.508a21.2,21.2,0,0,1,2.988.211,17.125,17.125,0,0,1,3.328.805,15.24,15.24,0,0,1,5,2.968Z" transform="translate(-291.411 -54.985)"/></g></svg>