<svg xmlns="http://www.w3.org/2000/svg" xmlns:xlink="http://www.w3.org/1999/xlink" width="164.587" height="115.997" viewBox="0 0 164.587 115.997"><defs><style>.a{fill:none;}.b{clip-path:url(#a);}.c{fill:rgba(255,255,255,0);stroke:#fff;}.d{fill:#fff;}</style><clipPath id="a"><rect class="a" width="164.587" height="115.997" transform="translate(-6 -4)"/></clipPath></defs><g transform="translate(6 4)"><g class="b"><path class="c" d="M30.868,159.034v-1.548a3.327,3.327,0,0,0,2.263-.811,3.179,3.179,0,0,0,.872-1.79,22.216,22.216,0,0,0,.184-2.938V135.86a3.111,3.111,0,0,0-1.371-.93,10.034,10.034,0,0,0-1.99-.357v-1.417q2.92.184,4.181.184,1.407,0,4.684-.184L47,151.017l6.891-17.861q.871.033,1.791.081t1.686.049q.452,0,1.155-.017t1.507-.048q.8-.033,1.387-.06t1.508-.049v1.5a5.965,5.965,0,0,0-2.3.346,1.97,1.97,0,0,0-1.1,1.174,7.051,7.051,0,0,0-.3,2.342v15.687a4.476,4.476,0,0,0,.383,2.088,2.016,2.016,0,0,0,1.15.968,8.543,8.543,0,0,0,2.164.351v1.5q-1.271-.022-3.834-.076t-3.823-.054q-1.723,0-5.083.087v-1.5a8.964,8.964,0,0,0,2.221-.5,1.588,1.588,0,0,0,.908-1.006,8.149,8.149,0,0,0,.231-2.3v-14.1L45.929,158.99H44.165l-8-19.9v12.853a19.513,19.513,0,0,0,.173,3,2.951,2.951,0,0,0,.908,1.72,4.044,4.044,0,0,0,2.363.861v1.547q-.841-.022-2.542-.076t-2.542-.054q-1.155,0-3.655.087" transform="translate(-16.488 -71.197)"/><path class="c" d="M106.826,148.528v-9.39a11.754,11.754,0,0,0-.21-2.586,2.014,2.014,0,0,0-.93-1.293,5.858,5.858,0,0,0-2.348-.6v-1.5q.661.011,1.86.048t2.394.06q1.2.022,1.86.022,2.279,0,6.838-.173v1.547a7.414,7.414,0,0,0-2.332.535,1.942,1.942,0,0,0-1.009,1.184,8.491,8.491,0,0,0-.273,2.5v10a15.639,15.639,0,0,0,.52,4.358,5.142,5.142,0,0,0,1.907,2.78,6.493,6.493,0,0,0,3.9,1.016l.094-.043a8.5,8.5,0,0,0,4.611-1.12,5.3,5.3,0,0,0,2.174-3.049,18.666,18.666,0,0,0,.567-5.044v-8.813a5.574,5.574,0,0,0-.677-3.2A4.03,4.03,0,0,0,123,134.572v-1.417q3.309.184,4.653.184,1.291,0,4.212-.184v1.5a6.647,6.647,0,0,0-2.138.725,2.2,2.2,0,0,0-.946,1.227,9.123,9.123,0,0,0-.309,2.353v8.817q0,1.979-.137,3.391a11.743,11.743,0,0,1-.63,2.8,7.542,7.542,0,0,1-1.471,2.494q-2.678,3.138-8.57,3.137-5.841,0-8.687-3.095a6.7,6.7,0,0,1-1.738-3.348,22.767,22.767,0,0,1-.415-4.636" transform="translate(-55.272 -71.196)"/><path class="c" d="M168.279,159.034v-1.548a3.328,3.328,0,0,0,2.263-.811,3.179,3.179,0,0,0,.872-1.79,22.216,22.216,0,0,0,.184-2.938V135.86a3.111,3.111,0,0,0-1.371-.93,10.034,10.034,0,0,0-1.99-.357v-1.417q2.92.184,4.181.184,1.407,0,4.684-.184l7.31,17.861,6.891-17.861q.871.033,1.791.081t1.686.049q.452,0,1.155-.017t1.507-.048q.8-.033,1.387-.06t1.508-.049v1.5a5.965,5.965,0,0,0-2.3.346,1.97,1.97,0,0,0-1.1,1.174,7.05,7.05,0,0,0-.3,2.342v15.687a4.476,4.476,0,0,0,.383,2.088,2.016,2.016,0,0,0,1.15.968,8.543,8.543,0,0,0,2.164.351v1.5q-1.271-.022-3.834-.076t-3.823-.054q-1.723,0-5.083.087v-1.5a8.963,8.963,0,0,0,2.221-.5,1.588,1.588,0,0,0,.908-1.006,8.148,8.148,0,0,0,.231-2.3v-14.1L183.34,158.99h-1.764l-8-19.9v12.853a19.513,19.513,0,0,0,.173,3,2.951,2.951,0,0,0,.908,1.72,4.045,4.045,0,0,0,2.363.861v1.547q-.841-.022-2.542-.076t-2.542-.054q-1.155,0-3.655.087" transform="translate(-89.984 -71.197)"/><path class="c" d="M249.685,158.524q-2.942-.087-4.476-.087-1.43,0-4.434.087v-1.548a4.46,4.46,0,0,0,3.7-3.018l8.994-21.8h1.85l8.4,21.756a4.173,4.173,0,0,1,.557,1.076,3.092,3.092,0,0,0,1,1.341,4.558,4.558,0,0,0,2.222.643v1.548q-4.729-.087-7.1-.087-1.975,0-5.758.087v-1.548a12.586,12.586,0,0,0,2.3-.27,1.041,1.041,0,0,0,.883-1.06v-.271a5.607,5.607,0,0,0-.253-1.53q-.252-.871-.557-1.667t-.662-1.714H248q-.442,1.061-.741,1.8a14.15,14.15,0,0,0-.489,1.39,4.358,4.358,0,0,0-.189,1.2q0,2.012,3.1,2.131Zm-.9-9.92h6.882l-3.268-8.958Z" transform="translate(-128.782 -70.687)"/><path class="c" d="M153.3,0h-7.451a8.307,8.307,0,0,0-7.8,5.452l-8.369,22.869L121.311,5.452A8.306,8.306,0,0,0,113.51,0h-7.451a6.682,6.682,0,0,0-6.682,6.682V47.093a4.828,4.828,0,0,0,3.139,4.521V6.832a3.694,3.694,0,0,1,3.694-3.693h6.157a6.8,6.8,0,0,1,6.391,4.467l10.922,29.855L140.6,7.606a6.8,6.8,0,0,1,6.39-4.467h6.158a3.693,3.693,0,0,1,3.693,3.693V51.614a4.829,4.829,0,0,0,3.139-4.521V6.682A6.682,6.682,0,0,0,153.3,0" transform="translate(-53.153)"/><path class="c" d="M146.574,61.97h-6.163a2.012,2.012,0,0,1-1.9-1.362L125.2,23.633V64.255a4.829,4.829,0,0,0,3.139-4.521V41.663L135.3,61.049a5.312,5.312,0,0,0,5,3.516h6.382a5.312,5.312,0,0,0,5-3.516l6.962-19.386V59.734a4.829,4.829,0,0,0,3.139,4.521V23.633l-13.3,36.975a2.012,2.012,0,0,1-1.9,1.362" transform="translate(-66.966 -12.64)"/><path class="d" d="M0,205.806c0-.1.028-.114.128-.114H.2a.206.206,0,0,1,.184.1l6.626,7.9V206.1c0-.185.057-.228.227-.228h.682c.171,0,.213.043.213.228v9.8c0,.1-.028.113-.114.113H7.948a.29.29,0,0,1-.213-.113l-6.611-7.948v7.65c0,.171-.057.227-.227.227H.227c-.17,0-.227-.057-.227-.227Z" transform="translate(0 -110.017)"/><path class="d" d="M23.936,215.744a2.763,2.763,0,0,0,2.744,2.46,3.908,3.908,0,0,0,2.232-.711.438.438,0,0,1,.185-.071c.043,0,.086.028.142.086l.271.327c.1.128.1.214,0,.313a4.275,4.275,0,0,1-2.873.995,3.775,3.775,0,0,1-.071-7.55c2.218,0,3.512,1.792,3.512,3.924,0,.171-.028.228-.213.228Zm.028-.74h5.019a2.513,2.513,0,0,0-2.432-2.516A2.632,2.632,0,0,0,23.964,215" transform="translate(-12.217 -113.173)"/><path class="d" d="M42.814,210.864h-.7c-.171,0-.228-.057-.228-.227v-.427c0-.185.057-.227.228-.227h.7v-1.465c0-.17.042-.227.214-.227h.626c.171,0,.213.057.213.227v1.465H46.44c.156,0,.213.043.213.227v.427c0,.171-.043.227-.213.227H43.866v3.27c0,1.664.5,2.275,1.635,2.275a1.8,1.8,0,0,0,.981-.214.344.344,0,0,1,.157-.057c.057,0,.1.042.128.17l.085.455c.043.142.028.2-.1.27a2.661,2.661,0,0,1-1.365.341c-1.876,0-2.574-1.18-2.574-3.156Z" transform="translate(-22.405 -111.407)"/><path class="d" d="M55.027,211.91c-.071-.17-.043-.227.113-.227h.768a.259.259,0,0,1,.284.2l1.521,4.99,2.076-5.2c.057-.1.086-.2.2-.2h.1c.1,0,.143.1.2.2l2.076,5.2,1.508-4.962a.264.264,0,0,1,.3-.227h.768c.171,0,.185.057.114.227l-2.2,6.953c-.057.142-.128.213-.185.213h-.1c-.086,0-.143-.071-.214-.213l-2.3-5.7-2.318,5.7c-.071.142-.128.213-.213.213H57.43c-.071,0-.142-.071-.2-.213Z" transform="translate(-29.412 -113.107)"/><path class="d" d="M79.284,215.374a3.74,3.74,0,1,1,3.74,3.768,3.762,3.762,0,0,1-3.74-3.768m3.74,2.815a2.819,2.819,0,1,0-2.673-2.815,2.742,2.742,0,0,0,2.673,2.815" transform="translate(-42.406 -113.173)"/><path class="d" d="M100.628,211.976c0-.17.057-.227.213-.227h.355c.114,0,.171.057.242.227l.17,1.422a2.949,2.949,0,0,1,2.958-1.806c.2,0,.227.057.2.2l-.086.64c-.042.17-.085.213-.256.213a2.543,2.543,0,0,0-2.73,2.616v3.5c0,.171-.056.228-.214.228h-.64c-.156,0-.213-.057-.213-.228Z" transform="translate(-53.822 -113.173)"/><path class="d" d="M113.806,205.155c0-.17.057-.227.227-.227h.612c.185,0,.227.057.227.227v6.213l3.3-2.957c.142-.171.214-.228.37-.228h.9c.142,0,.185.114.071.228l-3.554,3.17,3.754,3.611c.156.171.057.228-.071.228h-.91c-.156,0-.227-.057-.369-.228l-3.484-3.327v3.327c0,.171-.057.228-.227.228h-.612c-.17,0-.227-.057-.227-.228Z" transform="translate(-60.871 -109.608)"/><path class="d" d="M140.28,205.821c.014-.1.028-.128.128-.128h.085c.057,0,.1.014.17.128l4.55,8.6,4.55-8.6c.072-.114.114-.128.171-.128h.085c.1,0,.113.028.128.128l1.194,9.782c.014.156-.043.227-.214.227h-.7c-.157,0-.2-.056-.214-.227l-.824-7.408-3.868,7.593c-.071.142-.142.227-.256.227h-.114c-.114,0-.17-.085-.27-.227l-3.839-7.578-.838,7.393c-.028.171-.057.227-.228.227h-.7c-.156,0-.228-.071-.2-.227Z" transform="translate(-74.388 -110.018)"/><path class="d" d="M170.556,212.155c0-.17.057-.227.214-.227h.639c.157,0,.214.057.214.227v3.682c0,1.692.854,2.517,2,2.517,1.237,0,2.033-1.194,2.033-2.616v-3.583c0-.17.057-.227.214-.227h.64c.156,0,.213.057.213.227v6.782c0,.171-.057.228-.213.228h-.356c-.113,0-.17-.057-.241-.228l-.114-1.28a2.813,2.813,0,0,1-2.431,1.664c-1.521,0-2.815-.924-2.815-3.2Z" transform="translate(-91.224 -113.353)"/><path class="d" d="M190.993,215.421c-.17,0-.227-.057-.227-.227V205.155c0-.17.057-.227.227-.227h.626c.171,0,.213.057.213.227v10.038c0,.171-.042.227-.213.227Z" transform="translate(-102.034 -109.608)"/><path class="d" d="M199.12,210.864h-.7c-.171,0-.228-.057-.228-.227v-.427c0-.185.057-.227.228-.227h.7v-1.465c0-.17.042-.227.214-.227h.626c.171,0,.213.057.213.227v1.465h2.574c.156,0,.214.043.214.227v.427c0,.171-.043.227-.214.227h-2.574v3.27c0,1.664.5,2.275,1.635,2.275a1.8,1.8,0,0,0,.981-.214.344.344,0,0,1,.157-.057c.057,0,.1.042.128.17l.085.455c.043.142.028.2-.1.27a2.661,2.661,0,0,1-1.365.341c-1.877,0-2.574-1.18-2.574-3.156Z" transform="translate(-106.008 -111.407)"/><path class="d" d="M214,205.973a.735.735,0,0,1,.74-.74.74.74,0,1,1,0,1.479.734.734,0,0,1-.74-.74m.441,9.612c-.171,0-.214-.057-.214-.227v-6.782c0-.17.042-.227.214-.227h.625c.185,0,.227.057.227.227v6.782c0,.171-.056.227-.227.227Z" transform="translate(-114.463 -109.771)"/><path class="d" d="M224.365,205.821c.014-.1.028-.128.128-.128h.085c.057,0,.1.014.17.128l4.55,8.6,4.549-8.6c.072-.114.114-.128.171-.128h.085c.1,0,.113.028.128.128l1.194,9.782c.014.156-.043.227-.214.227h-.7c-.157,0-.2-.056-.214-.227l-.824-7.408-3.868,7.593c-.071.142-.142.227-.256.227h-.114c-.114,0-.17-.085-.27-.227l-3.839-7.578-.839,7.393c-.028.171-.057.227-.228.227h-.7c-.156,0-.228-.071-.2-.227Z" transform="translate(-119.362 -110.018)"/><path class="d" d="M259.478,217.791a3.506,3.506,0,0,1-2.858,1.35,2.336,2.336,0,0,1-2.53-2.36c0-1.55,1.166-2.3,2.915-2.3a6.269,6.269,0,0,1,2.3.5c0-1.792-.526-2.446-2.019-2.446a11.579,11.579,0,0,0-2.189.228.219.219,0,0,1-.086.014c-.114,0-.156-.071-.185-.213l-.114-.427c-.043-.156,0-.227.171-.284a13.461,13.461,0,0,1,2.445-.256c2.388,0,3.042,1.066,3.042,3.412v3.754c0,.171-.056.227-.213.227h-.413c-.113,0-.17-.057-.213-.227Zm-.17-2.005a5.032,5.032,0,0,0-2.09-.512c-1.351,0-2.062.541-2.062,1.508,0,.882.64,1.521,1.792,1.521a3.07,3.07,0,0,0,2.36-1.337Z" transform="translate(-135.903 -113.173)"/><path class="d" d="M273.567,211.976c0-.17.057-.227.213-.227h.355c.114,0,.171.057.242.227l.17,1.422a2.949,2.949,0,0,1,2.958-1.806c.2,0,.227.057.2.2l-.086.64c-.042.17-.085.213-.256.213a2.543,2.543,0,0,0-2.73,2.616v3.5c0,.171-.056.228-.214.228h-.64c-.156,0-.213-.057-.213-.228Z" transform="translate(-146.321 -113.173)"/><path class="d" d="M286.745,205.155c0-.17.057-.227.227-.227h.612c.185,0,.227.057.227.227v6.213l3.3-2.957c.142-.171.214-.228.37-.228h.9c.142,0,.185.114.071.228l-3.554,3.17,3.754,3.611c.156.171.057.228-.071.228h-.91c-.156,0-.227-.057-.369-.228l-3.484-3.327v3.327c0,.171-.057.228-.227.228h-.612c-.17,0-.227-.057-.227-.228Z" transform="translate(-153.369 -109.608)"/><path class="d" d="M303.679,215.744a2.763,2.763,0,0,0,2.744,2.46,3.908,3.908,0,0,0,2.232-.711.438.438,0,0,1,.185-.071c.043,0,.086.028.142.086l.271.327c.1.128.1.214,0,.313a4.275,4.275,0,0,1-2.873.995,3.775,3.775,0,0,1-.071-7.55c2.218,0,3.512,1.792,3.512,3.924,0,.171-.028.228-.214.228Zm.028-.74h5.019a2.513,2.513,0,0,0-2.431-2.516A2.632,2.632,0,0,0,303.707,215" transform="translate(-161.841 -113.173)"/><path class="d" d="M322.557,210.864h-.7c-.171,0-.228-.057-.228-.227v-.427c0-.185.057-.227.228-.227h.7v-1.465c0-.17.042-.227.214-.227h.626c.171,0,.213.057.213.227v1.465h2.574c.156,0,.214.043.214.227v.427c0,.171-.043.227-.214.227h-2.574v3.27c0,1.664.5,2.275,1.635,2.275a1.8,1.8,0,0,0,.98-.214.345.345,0,0,1,.157-.057c.057,0,.1.042.128.17l.085.455c.043.142.028.2-.1.27a2.661,2.661,0,0,1-1.365.341c-1.877,0-2.574-1.18-2.574-3.156Z" transform="translate(-172.03 -111.407)"/></g></g></svg>