<svg xmlns="http://www.w3.org/2000/svg" xmlns:xlink="http://www.w3.org/1999/xlink" width="154.108" height="111.403" viewBox="0 0 154.108 111.403"><defs><style>.a{fill:none;stroke:rgba(0,0,0,0);}.b{clip-path:url(#a);}.c{fill:rgba(255,255,255,0);stroke:#fff;}.d{fill:#fff;stroke:rgba(255,255,255,0);stroke-width:0.3px;}</style><clipPath id="a"><rect class="a" width="154.108" height="111.403"/></clipPath></defs><g class="b"><path class="c" d="M25.118,144.124,0,169.07a210.057,210.057,0,0,1,32.047-6.847c24.912-3.53,60.974-4.842,95.767,7.577,0,0-32.152-21.59-77.253-25.508a157.483,157.483,0,0,0-25.443-.168" transform="translate(0 -92.544)"/><path class="c" d="M132.969,24.852l75.776,53.5-28.3-28.778V21.2H162.549v5.113l8.28,13.484L131.691,0,84.833,46.537a223.811,223.811,0,0,1,23.4,2.274Z" transform="translate(-54.637)"/><path class="c" d="M19.937,241.547v-6.111h4.247v16.328H19.937v-6.206H13.755v6.206H9.508V235.437h4.247v6.111Z" transform="translate(-6.124 -151.634)"/><path class="c" d="M65.3,234.641c5.309,0,8.447,3.54,8.447,8.423v.023c0,4.908-3.138,8.448-8.447,8.448h-.023c-5.309,0-8.448-3.54-8.448-8.448v-.023c0-4.883,3.138-8.423,8.448-8.423Zm0,12.931c2.643,0,4.2-1.888,4.2-4.484v-.023c0-2.571-1.556-4.459-4.2-4.459h-.023c-2.643,0-4.2,1.888-4.2,4.459v.023c0,2.6,1.558,4.484,4.2,4.484Z" transform="translate(-36.599 -151.122)"/><path class="c" d="M119.911,235.437h4.247v8.848c0,5.4-3.138,7.764-7.409,7.764h-.023c-4.271,0-7.409-2.359-7.409-7.764v-8.848h4.247v8.848c0,2.879,1.557,3.657,3.162,3.657h.023c1.6,0,3.162-.778,3.162-3.657Z" transform="translate(-70.406 -151.635)"/><path class="c" d="M166.549,239.619a5.67,5.67,0,0,0-3.8-1.2h-.023c-1.51,0-2.5.377-2.5,1.132,0,.518.307.8,1.935,1.132l2.879.59c3.3.684,4.2,3,4.176,5.285,0,3.208-2.856,4.979-6.607,4.979h-.024c-3.491,0-6.017-1.11-7.409-3.4l3.493-2.547a4.319,4.319,0,0,0,4.01,2.193h.024c1.439,0,2.218-.495,2.218-1.345s-.637-1.179-1.7-1.439l-3.469-.825c-2.737-.661-3.822-2.383-3.822-4.461,0-3.421,2.9-5.073,6.961-5.073h.023A9.578,9.578,0,0,1,169,236.458Z" transform="translate(-99.942 -151.121)"/><path class="c" d="M211.858,235.437V239.4h-7.1v2.219h6.158v3.963h-6.158V247.8h7.1v3.964h-11.35V235.437Z" transform="translate(-129.139 -151.634)"/><path class="c" d="M265.894,239.9a5.238,5.238,0,0,0-3.564-1.3h-.024a4.132,4.132,0,0,0-4.2,4.459v.023c.046,2.525,1.58,4.484,4.2,4.484h.024a5.142,5.142,0,0,0,3.564-1.3l2.336,3.185a8.356,8.356,0,0,1-5.9,2.078h-.024c-5.309,0-8.447-3.54-8.447-8.448v-.023c0-4.883,3.137-8.423,8.447-8.423h.024a8.483,8.483,0,0,1,5.9,2.076Z" transform="translate(-163.5 -151.122)"/><path class="c" d="M303.7,235.437v12.247h7.786v4.082H299.456V235.437Z" transform="translate(-192.866 -151.634)"/><path class="c" d="M348.289,235.437h4.247v8.848c0,5.4-3.138,7.764-7.409,7.764H345.1c-4.27,0-7.409-2.359-7.409-7.764v-8.848h4.247v8.848c0,2.879,1.557,3.657,3.162,3.657h.023c1.6,0,3.162-.778,3.162-3.657Z" transform="translate(-217.494 -151.635)"/><path class="c" d="M400.783,247.234c0,3.257-2.855,4.531-6.229,4.531H387V235.437h7.2c4.106,0,6.182,1.628,6.182,4.531,0,2.359-1.015,3.35-2.36,3.775a3.267,3.267,0,0,1,2.76,3.491m-9.532-8.14v2.879h3.209c.943,0,1.746-.26,1.746-1.37,0-.989-.708-1.509-2.005-1.509Zm0,9.014h3.3c1.321,0,2.053-.377,2.053-1.439,0-.78-.449-1.44-1.982-1.44h-3.374Z" transform="translate(-249.252 -151.635)"/><path class="d" d="M38.92,304.047H38.7l-1.355-1.8c-.083.008-.174.014-.271.014H35.5v1.786h-.2v-4.808h1.772c1.14,0,1.751.633,1.751,1.536v.006a1.414,1.414,0,0,1-1.279,1.439ZM35.5,302.081h1.57c1.022,0,1.55-.55,1.55-1.3v-.006c0-.807-.528-1.348-1.55-1.348H35.5Z" transform="translate(-22.735 -192.727)"/><path class="d" d="M56.365,299.239v.188H53.524v2.146H56.15v.188H53.524v2.1h2.841v.188H53.322v-4.808Z" transform="translate(-34.343 -192.727)"/><path class="d" d="M73.078,304.046h-.208l-.633-1.4H69.354l-.632,1.4h-.209l2.182-4.808h.2ZM70.8,299.46l-1.361,3.008H72.16Z" transform="translate(-44.126 -192.726)"/><path class="d" d="M89.137,299.239v4.62h3.051v.188H88.936v-4.808Z" transform="translate(-57.28 -192.727)"/><path class="d" d="M119.178,299.239v.188h-2.842v2.146h2.625v.188h-2.625v2.1h2.842v.188h-3.044v-4.808Z" transform="translate(-74.797 -192.727)"/><path class="d" d="M134.89,300.235a1.448,1.448,0,0,0-1.549-1.041h-.007c-.958,0-1.465.4-1.465.979,0,.41.236.827.931,1.008l1.257.326a1.2,1.2,0,0,1,1.042,1.251c0,.7-.6,1.223-1.716,1.223h-.006a1.761,1.761,0,0,1-1.856-1.188l.174-.1a1.583,1.583,0,0,0,1.682,1.106h.006c.994,0,1.522-.439,1.522-1.049a1.056,1.056,0,0,0-.924-1.057l-1.271-.334a1.2,1.2,0,0,1-1.043-1.189c0-.694.57-1.166,1.668-1.166h.007a1.58,1.58,0,0,1,1.695,1.118Z" transform="translate(-84.707 -192.577)"/><path class="d" d="M151.755,299.239v.188h-1.737v4.62h-.2v-4.62h-1.737v-.188Z" transform="translate(-95.371 -192.727)"/><path class="d" d="M167.7,304.046h-.208l-.633-1.4h-2.882l-.633,1.4h-.208l2.181-4.808h.2Zm-2.278-4.586-1.362,3.008h2.724Z" transform="translate(-105.067 -192.726)"/><path class="d" d="M184.362,299.239v.188h-1.737v4.62h-.2v-4.62h-1.737v-.188Z" transform="translate(-116.372 -192.727)"/><path class="d" d="M201.614,299.239v.188h-2.841v2.146H201.4v.188h-2.626v2.1h2.841v.188h-3.043v-4.808Z" transform="translate(-127.891 -192.727)"/><path class="d" d="M228.879,302.776c0,.916-.556,1.271-1.612,1.271h-1.848v-4.808h1.653c1.07,0,1.613.291,1.613,1.209a1.027,1.027,0,0,1-.994,1.105c.806.111,1.189.521,1.189,1.223m-3.258-3.357v2.057h1.389c1.022,0,1.473-.291,1.473-1.015,0-.82-.479-1.043-1.411-1.043Zm0,4.446h1.646c.938,0,1.418-.3,1.418-1.1,0-.73-.452-1.118-1.48-1.118h-1.584Z" transform="translate(-145.182 -192.727)"/><path class="d" d="M243.329,299.239v4.62h3.05v.188h-3.252v-4.808Z" transform="translate(-156.588 -192.727)"/><path class="d" d="M260.5,299.005a2.321,2.321,0,0,1,2.418,2.48v.006a2.324,2.324,0,0,1-2.418,2.488h-.006a2.326,2.326,0,0,1-2.425-2.488v-.006a2.323,2.323,0,0,1,2.425-2.48Zm0,4.786a2.136,2.136,0,0,0,2.223-2.3v-.006a2.133,2.133,0,0,0-2.223-2.292h-.006a2.129,2.129,0,0,0-2.223,2.292v.006a2.132,2.132,0,0,0,2.223,2.3Z" transform="translate(-166.208 -192.576)"/><path class="d" d="M282.687,299.631a2.246,2.246,0,0,0-1.39-.437h-.007a2.145,2.145,0,0,0-2.209,2.292v.006a2.147,2.147,0,0,0,2.209,2.3h.007a2.232,2.232,0,0,0,1.39-.437l.111.152a2.356,2.356,0,0,1-1.5.473h-.007a2.315,2.315,0,0,1-2.411-2.488v-.006a2.312,2.312,0,0,1,2.411-2.48h.007a2.369,2.369,0,0,1,1.5.473Z" transform="translate(-179.614 -192.577)"/><path class="d" d="M300.893,299.239h.215l-1.779,2.446,1.779,2.362h-.222l-1.722-2.286h-1.4v2.286h-.2v-4.808h.2v2.334h1.41Z" transform="translate(-191.648 -192.727)"/><path class="d" d="M317.873,299.631a2.243,2.243,0,0,0-1.39-.437h-.007a2.145,2.145,0,0,0-2.209,2.292v.006a2.147,2.147,0,0,0,2.209,2.3h.007a2.229,2.229,0,0,0,1.39-.437l.111.152a2.354,2.354,0,0,1-1.5.473h-.007a2.314,2.314,0,0,1-2.41-2.488v-.006a2.312,2.312,0,0,1,2.41-2.48h.007a2.366,2.366,0,0,1,1.5.473Z" transform="translate(-202.276 -192.577)"/><path class="d" d="M336.48,301.573v-2.334h.2v4.808h-.2v-2.286h-3.529v2.286h-.2v-4.808h.2v2.334Z" transform="translate(-214.309 -192.727)"/><path class="d" d="M355.964,304.046h-.209l-.632-1.4h-2.884l-.632,1.4H351.4l2.181-4.808h.2Zm-2.279-4.586-1.361,3.008h2.724Z" transform="translate(-226.32 -192.726)"/><rect class="d" width="0.202" height="4.808" transform="translate(132.347 106.512)"/><path class="d" d="M384.871,299.239h.194v4.808h-.25l-3.488-4.558v4.558h-.2v-4.808h.251l3.488,4.558Z" transform="translate(-245.471 -192.727)"/></g></svg>