<svg xmlns="http://www.w3.org/2000/svg" width="39.269" height="39.811" viewBox="0 0 39.269 39.811"><defs><style>.a{fill:#fff;}</style></defs><path class="a" d="M12.841,1.617C14.9,1.521,15.554,1.5,20.8,1.5s5.9.023,7.953.117a14.026,14.026,0,0,1,4.687.909,9.481,9.481,0,0,1,3.417,2.26A9.574,9.574,0,0,1,39.078,8.25a14.574,14.574,0,0,1,.9,4.751c.095,2.091.116,2.756.116,8.071s-.023,5.982-.116,8.069a14.528,14.528,0,0,1-.9,4.751,9.615,9.615,0,0,1-2.224,3.468,9.449,9.449,0,0,1-3.417,2.256,14.017,14.017,0,0,1-4.684.911c-2.059.1-2.715.117-7.957.117s-5.9-.023-7.955-.117a13.972,13.972,0,0,1-4.684-.911,9.455,9.455,0,0,1-3.419-2.256,9.608,9.608,0,0,1-2.226-3.466,14.626,14.626,0,0,1-.9-4.751c-.095-2.091-.116-2.756-.116-8.071S1.523,15.09,1.616,13a14.584,14.584,0,0,1,.9-4.754A9.615,9.615,0,0,1,4.74,4.785,9.447,9.447,0,0,1,8.155,2.527a14.066,14.066,0,0,1,4.684-.909ZM28.593,5.14c-2.035-.094-2.645-.114-7.8-.114s-5.762.02-7.8.114a10.534,10.534,0,0,0-3.584.674A5.984,5.984,0,0,0,7.2,7.277,6.08,6.08,0,0,0,5.754,9.528a10.953,10.953,0,0,0-.665,3.635c-.093,2.064-.112,2.683-.112,7.909s.019,5.845.112,7.909a10.953,10.953,0,0,0,.665,3.635A6.085,6.085,0,0,0,7.2,34.866a5.982,5.982,0,0,0,2.219,1.463A10.534,10.534,0,0,0,13,37c2.035.094,2.644.114,7.8.114s5.762-.02,7.8-.114a10.534,10.534,0,0,0,3.584-.674A5.984,5.984,0,0,0,34.4,34.866a6.085,6.085,0,0,0,1.442-2.251,10.953,10.953,0,0,0,.665-3.635c.093-2.064.112-2.683.112-7.909s-.019-5.845-.112-7.909a10.952,10.952,0,0,0-.665-3.635A6.087,6.087,0,0,0,34.4,7.277a5.979,5.979,0,0,0-2.219-1.463,10.534,10.534,0,0,0-3.584-.674ZM18.331,27.105a6.385,6.385,0,0,0,7.825-2.4,6.6,6.6,0,0,0-.808-8.251,6.372,6.372,0,0,0-7.015-1.414,6.566,6.566,0,0,0,0,12.065ZM13.783,13.958a9.819,9.819,0,0,1,14.026,0,10.162,10.162,0,0,1,0,14.227,9.819,9.819,0,0,1-14.026,0,10.162,10.162,0,0,1,0-14.227ZM32.913,12.51a2.4,2.4,0,0,0,.662-2.324,2.362,2.362,0,0,0-1.686-1.71,2.324,2.324,0,0,0-2.291.671,2.4,2.4,0,0,0,.048,3.314A2.322,2.322,0,0,0,32.913,12.51Z" transform="matrix(1, -0.017, 0.017, 1, -1.526, -0.8)"/></svg>