<svg xmlns="http://www.w3.org/2000/svg" width="39.455" height="39.455" viewBox="0 0 39.455 39.455"><defs><style>.a{fill:#e1c191;}</style></defs><path class="a" d="M17.656,16.748h7.327V20.4c1.055-2.1,3.762-3.985,7.828-3.985,7.794,0,9.645,4.178,9.645,11.844v14.2H34.564V30c0-4.366-1.055-6.828-3.742-6.828-3.727,0-5.275,2.653-5.275,6.826V42.455H17.656V16.748ZM4.124,42.12h7.891V16.413H4.124V42.12ZM13.146,8.031a4.991,4.991,0,0,1-1.485,3.555A5.071,5.071,0,0,1,3,8.031,5,5,0,0,1,4.485,4.474a5.1,5.1,0,0,1,7.175,0A5.007,5.007,0,0,1,13.146,8.031Z" transform="translate(-3 -3)"/></svg>