<svg xmlns="http://www.w3.org/2000/svg" xmlns:xlink="http://www.w3.org/1999/xlink" width="201.488" height="66" viewBox="0 0 201.488 66"><defs><style>.a{fill:none;}.b{clip-path:url(#a);}.c{fill:#fff;}.d{clip-path:url(#b);}.e{clip-path:url(#d);}.f{clip-path:url(#f);}.g{clip-path:url(#h);}.h{clip-path:url(#j);}.i{fill:#040506;}.i,.k{font-size:18px;font-family:AcherusGrotesque-Regular, Acherus Grotesque;}.j{letter-spacing:0.05em;}.k{fill:#d88b3f;}</style><clipPath id="a"><rect class="a" width="201.488" height="66"/></clipPath><clipPath id="b"><path class="a" d="M37.328.688c-.474.021-1.039.043-1.692.07S34.37.8,33.8.816s-1.043.02-1.411.02q-.937,0-2.056-.058c-.75-.038-1.476-.071-2.186-.1L19.737,21.841,10.818.683Q6.819.9,5.1.9,3.563.9,0,.683V2.361a12.593,12.593,0,0,1,2.429.422A3.8,3.8,0,0,1,4.1,3.886V22.945a25.513,25.513,0,0,1-.224,3.48,3.713,3.713,0,0,1-1.064,2.12,4.122,4.122,0,0,1-2.761.961V31.34q3.048-.105,4.459-.1,1.026,0,3.1.064t3.1.089V29.558A5.023,5.023,0,0,1,7.83,28.539,3.473,3.473,0,0,1,6.722,26.5a22.485,22.485,0,0,1-.21-3.556V7.717l9.765,23.571h2.154l9.291-22.94v16.7a9.387,9.387,0,0,1-.281,2.724,1.909,1.909,0,0,1-1.109,1.191,11.173,11.173,0,0,1-2.711.6V31.34q4.1-.105,6.2-.1,1.536,0,4.663.064t4.68.089V29.608a10.749,10.749,0,0,1-2.641-.415,2.438,2.438,0,0,1-1.4-1.148,5.171,5.171,0,0,1-.469-2.473V6.987a8.077,8.077,0,0,1,.373-2.774,2.353,2.353,0,0,1,1.34-1.391,7.447,7.447,0,0,1,2.8-.411V.631Q38.04.656,37.328.688" transform="translate(0 -0.631)"/></clipPath><clipPath id="d"><path class="a" d="M123.542.836q-.809,0-2.268-.025T118.351.74q-1.463-.046-2.268-.057v1.78a7.322,7.322,0,0,1,2.863.711,2.39,2.39,0,0,1,1.135,1.531,13.574,13.574,0,0,1,.255,3.064V18.894a26.169,26.169,0,0,0,.507,5.492,7.874,7.874,0,0,0,2.122,3.966q3.471,3.667,10.6,3.665,7.19,0,10.458-3.716a8.847,8.847,0,0,0,1.795-2.955,13.512,13.512,0,0,0,.769-3.319q.167-1.671.167-4.019V7.564a10.545,10.545,0,0,1,.379-2.788,2.621,2.621,0,0,1,1.153-1.454,8.259,8.259,0,0,1,2.607-.859V.683Q147.328.9,145.753.9q-1.642,0-5.678-.216V2.361q2.549.33,3.376,1.408a6.435,6.435,0,0,1,.828,3.793V18a21.493,21.493,0,0,1-.693,5.976,6.3,6.3,0,0,1-2.652,3.613,10.6,10.6,0,0,1-5.627,1.325l-.115.052a8.105,8.105,0,0,1-4.755-1.2,6.083,6.083,0,0,1-2.325-3.292,18,18,0,0,1-.636-5.162V7.459a9.779,9.779,0,0,1,.334-2.959,2.318,2.318,0,0,1,1.23-1.4,9.273,9.273,0,0,1,2.845-.633V.631q-5.561.2-8.342.2" transform="translate(-116.083 -0.631)"/></clipPath><clipPath id="f"><path class="a" d="M461.94,8.87l3.986,10.613h-8.4ZM463.247,0,452.271,25.826A5.408,5.408,0,0,1,447.76,29.4v1.834q3.664-.105,5.409-.1,1.872,0,5.463.1V29.4q-3.785-.139-3.783-2.525a5.042,5.042,0,0,1,.23-1.416,16.839,16.839,0,0,1,.6-1.647q.364-.871.9-2.128h10.18q.435,1.09.808,2.031t.679,1.976a6.4,6.4,0,0,1,.309,1.813v.32a1.246,1.246,0,0,1-1.078,1.256,15.8,15.8,0,0,1-2.808.32v1.834q4.617-.105,7.026-.1,2.9,0,8.668.1V29.4a5.71,5.71,0,0,1-2.713-.76,3.682,3.682,0,0,1-1.224-1.592,4.972,4.972,0,0,0-.68-1.276L465.5,0Z" transform="translate(-447.76)"/></clipPath><clipPath id="h"><path class="a" d="M257.637,1.52q-.712.031-1.692.07t-1.838.057q-.859.019-1.41.02-.937,0-2.056-.057c-.749-.038-1.476-.072-2.186-.1l-8.408,21.158L231.127,1.514q-4,.217-5.717.216-1.539,0-5.1-.216V3.192a12.6,12.6,0,0,1,2.429.422,3.8,3.8,0,0,1,1.673,1.1V23.775a25.637,25.637,0,0,1-.224,3.48,3.709,3.709,0,0,1-1.064,2.12,4.12,4.12,0,0,1-2.761.961v1.834q3.047-.1,4.459-.1,1.025,0,3.1.064c1.385.044,2.418.072,3.1.09V30.389a5.021,5.021,0,0,1-2.885-1.019,3.472,3.472,0,0,1-1.109-2.039,22.447,22.447,0,0,1-.21-3.556V8.549l9.765,23.571h2.154L248.03,9.179v16.7a9.388,9.388,0,0,1-.281,2.724,1.907,1.907,0,0,1-1.109,1.191,11.159,11.159,0,0,1-2.711.6v1.782q4.1-.1,6.2-.1,1.537,0,4.663.064t4.68.09V30.439a10.758,10.758,0,0,1-2.641-.415,2.435,2.435,0,0,1-1.4-1.148,5.171,5.171,0,0,1-.469-2.473V7.819a8.081,8.081,0,0,1,.373-2.774,2.354,2.354,0,0,1,1.34-1.39,7.443,7.443,0,0,1,2.8-.411V1.462q-1.129.025-1.84.058" transform="translate(-220.309 -1.462)"/></clipPath><clipPath id="j"><path class="a" d="M371.576,1.52q-.712.031-1.693.07t-1.838.057q-.859.019-1.411.02-.936,0-2.056-.057c-.749-.038-1.476-.072-2.186-.1l-8.408,21.158L345.065,1.514q-4,.217-5.717.216-1.539,0-5.1-.216V3.192a12.6,12.6,0,0,1,2.429.422,3.8,3.8,0,0,1,1.672,1.1V23.775a25.51,25.51,0,0,1-.224,3.48,3.708,3.708,0,0,1-1.064,2.12,4.121,4.121,0,0,1-2.762.961v1.834q3.048-.1,4.46-.1,1.025,0,3.1.064c1.385.044,2.418.072,3.1.09V30.389a5.021,5.021,0,0,1-2.885-1.019,3.474,3.474,0,0,1-1.109-2.039,22.539,22.539,0,0,1-.21-3.556V8.549l9.765,23.571h2.154l9.291-22.941v16.7a9.4,9.4,0,0,1-.281,2.724,1.908,1.908,0,0,1-1.109,1.191,11.152,11.152,0,0,1-2.711.6v1.782q4.1-.1,6.2-.1,1.536,0,4.663.064t4.68.09V30.439a10.764,10.764,0,0,1-2.641-.415,2.437,2.437,0,0,1-1.4-1.148A5.171,5.171,0,0,1,368.9,26.4V7.819a8.08,8.08,0,0,1,.373-2.774,2.354,2.354,0,0,1,1.34-1.39,7.435,7.435,0,0,1,2.8-.411V1.462q-1.129.025-1.839.058" transform="translate(-334.247 -1.462)"/></clipPath></defs><g class="b"><path class="c" d="M37.328.688c-.474.021-1.038.043-1.692.07S34.37.8,33.8.816s-1.043.02-1.41.02q-.936,0-2.056-.058c-.749-.038-1.476-.072-2.186-.1L19.737,21.841,10.818.682Q6.818.9,5.1.9,3.562.9,0,.682V2.36a12.593,12.593,0,0,1,2.429.422A3.8,3.8,0,0,1,4.1,3.886V22.944a25.577,25.577,0,0,1-.224,3.48,3.713,3.713,0,0,1-1.064,2.12,4.125,4.125,0,0,1-2.762.961v1.834q3.048-.105,4.46-.1,1.025,0,3.1.065c1.385.043,2.418.071,3.1.09V29.557A5.026,5.026,0,0,1,7.83,28.539,3.477,3.477,0,0,1,6.722,26.5a22.487,22.487,0,0,1-.21-3.556V7.717l9.765,23.571h2.154L27.721,8.347v16.7a9.392,9.392,0,0,1-.281,2.724,1.908,1.908,0,0,1-1.109,1.191,11.155,11.155,0,0,1-2.711.6v1.782q4.1-.105,6.2-.1,1.536,0,4.663.065t4.68.09V29.608a10.755,10.755,0,0,1-2.641-.416,2.436,2.436,0,0,1-1.4-1.148,5.17,5.17,0,0,1-.469-2.472V6.987a8.077,8.077,0,0,1,.373-2.774,2.353,2.353,0,0,1,1.34-1.391,7.44,7.44,0,0,1,2.8-.411V.63q-1.129.025-1.84.058" transform="translate(0 -0.392)"/></g><g transform="translate(0 0.238)"><g class="d"><rect class="c" width="39.168" height="30.76" transform="translate(0 0)"/></g></g><g class="b"><path class="c" d="M123.542.836q-.808,0-2.268-.025T118.352.74q-1.463-.046-2.268-.058V2.464a7.315,7.315,0,0,1,2.862.711,2.388,2.388,0,0,1,1.135,1.531,13.568,13.568,0,0,1,.255,3.063V18.894a26.192,26.192,0,0,0,.507,5.492,7.872,7.872,0,0,0,2.122,3.966q3.471,3.667,10.6,3.665,7.19,0,10.457-3.716a8.847,8.847,0,0,0,1.795-2.955,13.53,13.53,0,0,0,.769-3.319q.166-1.671.167-4.019V7.565a10.548,10.548,0,0,1,.379-2.788,2.619,2.619,0,0,1,1.153-1.454,8.256,8.256,0,0,1,2.607-.859V.683Q147.329.9,145.753.9q-1.642,0-5.678-.216V2.361q2.549.33,3.376,1.408a6.436,6.436,0,0,1,.828,3.793V18a21.491,21.491,0,0,1-.693,5.976,6.3,6.3,0,0,1-2.652,3.614,10.61,10.61,0,0,1-5.627,1.325l-.115.052a8.108,8.108,0,0,1-4.756-1.2,6.086,6.086,0,0,1-2.325-3.292,18.022,18.022,0,0,1-.636-5.163V7.459a9.783,9.783,0,0,1,.334-2.96,2.32,2.32,0,0,1,1.231-1.4,9.272,9.272,0,0,1,2.844-.633V.631q-5.561.2-8.342.2" transform="translate(-72.3 -0.393)"/></g><g transform="translate(43.783 0.238)"><g class="e"><rect class="c" width="34.808" height="31.387" transform="translate(0 0)"/></g></g><g class="b"><path class="c" d="M461.94,8.87l3.986,10.613h-8.4ZM463.248,0,452.271,25.826A5.408,5.408,0,0,1,447.76,29.4v1.834q3.664-.105,5.409-.1,1.872,0,5.463.1V29.4q-3.784-.139-3.783-2.524a5.038,5.038,0,0,1,.23-1.416,16.939,16.939,0,0,1,.6-1.647q.364-.871.9-2.127H466.76q.436,1.09.808,2.03t.679,1.976a6.412,6.412,0,0,1,.309,1.813v.32a1.247,1.247,0,0,1-1.078,1.256,15.76,15.76,0,0,1-2.808.32v1.834q4.616-.105,7.026-.1,2.9,0,8.668.1V29.4a5.705,5.705,0,0,1-2.713-.761,3.675,3.675,0,0,1-1.224-1.591,4.977,4.977,0,0,0-.681-1.276L465.5,0Z" transform="translate(-278.877)"/></g><g transform="translate(168.883)"><g class="f"><rect class="c" width="32.605" height="31.236" transform="translate(0 0)"/></g></g><g class="b"><path class="c" d="M257.637,1.519c-.474.021-1.038.043-1.692.07s-1.266.045-1.838.058-1.042.02-1.41.02q-.936,0-2.056-.058c-.749-.038-1.476-.072-2.186-.1l-8.408,21.159L231.127,1.513q-4,.217-5.717.216-1.539,0-5.1-.216V3.191a12.593,12.593,0,0,1,2.429.422,3.8,3.8,0,0,1,1.673,1.1V23.775a25.577,25.577,0,0,1-.224,3.48,3.713,3.713,0,0,1-1.064,2.12,4.125,4.125,0,0,1-2.762.961V32.17q3.048-.105,4.46-.1,1.025,0,3.1.065c1.385.043,2.418.071,3.1.09V30.388a5.023,5.023,0,0,1-2.885-1.019,3.477,3.477,0,0,1-1.109-2.039,22.486,22.486,0,0,1-.21-3.556V8.548l9.765,23.571h2.154l9.291-22.941v16.7a9.388,9.388,0,0,1-.281,2.724,1.908,1.908,0,0,1-1.109,1.191,11.155,11.155,0,0,1-2.711.6V32.17q4.1-.105,6.2-.1,1.536,0,4.663.065t4.68.09V30.439a10.755,10.755,0,0,1-2.641-.416,2.436,2.436,0,0,1-1.4-1.148,5.17,5.17,0,0,1-.469-2.472V7.818a8.077,8.077,0,0,1,.373-2.774,2.354,2.354,0,0,1,1.34-1.391,7.448,7.448,0,0,1,2.8-.411V1.461q-1.129.026-1.84.058" transform="translate(-137.214 -0.91)"/></g><g transform="translate(83.095 0.551)"><g class="g"><rect class="c" width="39.168" height="30.76" transform="translate(0 0)"/></g></g><g class="b"><path class="c" d="M371.575,1.519c-.474.021-1.038.043-1.692.07s-1.266.045-1.838.058-1.043.02-1.41.02q-.936,0-2.056-.058c-.749-.038-1.476-.072-2.186-.1l-8.408,21.159L345.065,1.513q-4,.217-5.717.216-1.539,0-5.1-.216V3.191a12.593,12.593,0,0,1,2.429.422,3.8,3.8,0,0,1,1.673,1.1V23.775a25.574,25.574,0,0,1-.224,3.48,3.713,3.713,0,0,1-1.064,2.12,4.125,4.125,0,0,1-2.762.961V32.17q3.048-.105,4.46-.1,1.025,0,3.1.065c1.385.043,2.418.071,3.1.09V30.388a5.023,5.023,0,0,1-2.885-1.019,3.477,3.477,0,0,1-1.108-2.039,22.489,22.489,0,0,1-.21-3.556V8.548l9.765,23.571h2.154l9.291-22.941v16.7a9.393,9.393,0,0,1-.281,2.724,1.908,1.908,0,0,1-1.109,1.191,11.156,11.156,0,0,1-2.711.6V32.17q4.1-.105,6.2-.1,1.536,0,4.663.065t4.68.09V30.439a10.755,10.755,0,0,1-2.641-.416,2.436,2.436,0,0,1-1.4-1.148A5.171,5.171,0,0,1,368.9,26.4V7.818a8.076,8.076,0,0,1,.373-2.774,2.354,2.354,0,0,1,1.34-1.391,7.448,7.448,0,0,1,2.8-.411V1.461q-1.129.026-1.84.058" transform="translate(-208.178 -0.91)"/></g><g transform="translate(126.069 0.551)"><g class="h"><rect class="c" width="39.168" height="30.76" transform="translate(0 0)"/></g></g><g class="b"><text class="i" transform="translate(65.949 58.206)"><tspan class="j" x="0" y="0">Grou</tspan><tspan y="0">p</tspan></text><text class="k" transform="translate(65.949 58.206)"><tspan class="j" x="0" y="0">Grou</tspan><tspan y="0">p</tspan></text></g></svg>