<svg xmlns="http://www.w3.org/2000/svg" xmlns:xlink="http://www.w3.org/1999/xlink" width="907" height="412" viewBox="0 0 907 412"><defs><style>.a,.j{fill:#fff;}.a{stroke:#707070;}.b,.f,.h,.i,.k{fill:none;}.c{opacity:0.56;}.d{clip-path:url(#a);}.e{clip-path:url(#b);}.f{stroke:#877a67;stroke-width:9px;}.f,.h,.i,.k{stroke-miterlimit:10;}.g{fill:#b8a285;}.h,.i{stroke:#b8a285;}.h{stroke-width:21px;}.i{stroke-width:13px;}.j{opacity:0.08;}.k{stroke:#b58e5b;}.l{fill:#748387;opacity:0.6;}.m{fill-rule:evenodd;fill:url(#c);}</style><clipPath id="a"><rect class="a" width="907" height="412" transform="translate(873 6266)"/></clipPath><clipPath id="b"><rect class="b" width="1079.499" height="647.791"/></clipPath><linearGradient id="c" x1="0.901" y1="0.134" x2="0.5" y2="1" gradientUnits="objectBoundingBox"><stop offset="0" stop-color="#ecca89"/><stop offset="1" stop-color="#744d14"/></linearGradient></defs><g class="c"><g class="d" transform="translate(-873 -6266)"><g transform="translate(776 6144)"><g class="e"><line class="f" x1="62.609" y1="320.87" transform="translate(316.455 0.862)"/><path class="f" d="M357.02,208.756,218.629,229.384s-30.522,5.041-64.174,27.564"/><path class="f" d="M93.412,34.746s-9.391,70.986,0,99.942,36.692,94.956,73.565,140.348c34.118,42,33.652,76.435,33.652,76.435"/><path class="f" d="M1.847,239.558,17.5,246.6s51.652,57.566,60.261,79.261,11.478,45.361,11.478,45.361"/><line class="f" x1="42.841" y1="224.819" transform="translate(200.63 0.862)"/><line class="f" x1="210.217" y2="43.135" transform="translate(15.151 130.684)"/><path class="f" d="M479.238,138.6s81.391-17.79,93.913-25.33S700.716,34.746,700.716,34.746"/><line class="f" x2="66.259" y2="90.826" transform="translate(719.176 29.036)"/><line class="f" x2="91.565" y2="79.304" transform="translate(879.151 68.166)"/><path class="f" d="M163.847,513.471s98.609,18,133.043,48.522,72.783,52.435,72.783,52.435"/><line class="f" y1="56.055" transform="translate(310.194 573.242)"/><path class="f" d="M1.847,549.471l143.087,30.522L1.847,525.21"/><path class="f" d="M646.521,197.492,618.454,155.66a4.755,4.755,0,0,0-6.6-1.3l-6.534,4.385a4.756,4.756,0,0,0-1.4,6.445l2.426,3.935a4.756,4.756,0,0,0,6.4,1.637l10.1-5.749"/><path class="f" d="M774.151,111.34s-12.913,3.13-16.435-1.826-9.782-13.957-14.609-8.87-3.521,39.522-3.521,39.522"/><path class="g" d="M523.064,264.471a40.044,40.044,0,1,1-40.043,40.043,40.088,40.088,0,0,1,40.043-40.043m0-21a61.044,61.044,0,1,0,61.043,61.043,61.043,61.043,0,0,0-61.043-61.043"/><path class="h" d="M22.678,378.822S428.5,336.561,510.671,287.257s206.608-121.3,248.869-154.174S822.149,83,891.8,9.431"/><path class="h" d="M483.151,275.036s18.783-49.565-3.13-115.3S452.89,19.906,452.89,19.906"/><line class="h" x1="43.69" y1="41.39" transform="translate(493.586 215.558)"/><path class="h" d="M30.325,404.137s405.819-42.261,487.993-91.565S724.926,191.267,767.187,158.4,836.108,108.311,905.76,34.746"/><path class="h" d="M504.281,351.471S552.02,414.08,570.02,461.036s75.913,131.478,202.7,176.87"/><line class="h" x1="26.423" y2="100.639" transform="translate(546.728 313.123)"/><path class="i" d="M148.2,395.558s7.3,73.435,6.26,104.87-11.478,114-11.478,114"/><path class="i" d="M164.878,395.558s7.3,73.435,6.261,104.87-11.478,114-11.478,114"/><path class="j" d="M92.629,104.753s39.13-9.2,48.913-3.522l-26.8,51.02L103.39,153.47l-12.6-30.9Z"/><path class="j" d="M92.629,101.819s31.891-5.674,39.13-5.674,11.087,2.837,11.087,2.837l34.109-51.75L90.5,64.289Z"/><path class="j" d="M179.76,48.21l-33.391,52.043,40.826,35.609,34.855-7.826L206.238,44.427Z"/><path class="j" d="M183.021,135.862l-38.087-32.609-27,46.957Z"/><path class="j" d="M268.912,389.623,255.8,391.188,260.89,422.1l13.7-1.956Z"/><path class="j" d="M246.607,416.232l10.174-1.37,3.522,23.283-12.685-9.966Z"/><path class="j" d="M227.825,444.6V434.427l17.413-2.739,12.522,9.978Z"/><path class="j" d="M212.564,438.145l6.457,9.391,7.043-2.934-3.522-22.5Z"/><path class="j" d="M261.868,426.5l11.543-1.467,2.348,16.434H263.825Z"/><path class="j" d="M311.173,401.362l5.087,2.775,33.848-6.688-1.37-22.3,54.587-5.87L409,376.71l-7.043,12.913,51.652,29.152L375.151,557.688,356.76,546.732l11.348-21.522-20.348-13.7-17.609,15.652-19.956-13.7,25.826-38.739L334.847,444.6l21.522-3.13-5.479-26.609-40.7,3.13Z"/><path class="j" d="M492.347,467.3l1.565,2.348-1.565,7.63s.391,9.979,8.413,12.131,9.2.978,9.2.978l-17.609,21.13s-4.109,5.087-1.957,6.653-7.434,11.543-7.434,11.543l-11.544-10.565,1.761-7.631-2.739-1.565Z"/><path class="j" d="M435.216,518.949s.2-9.783,5.283-11.543,16.434,8.413,16.434,8.413,3.718,4.108,1.761,8.021-12.521,26.609-12.521,26.609-13.892-.978-14.87,7.239l-16.826-8.8s9-19.37,15.652-24.457,5.087-5.478,5.087-5.478"/><path class="j" d="M429.738,561.014s2.935,12.326,12.913,10.174l7.239,8.8-25.435,22.326s-13.891-16.261-30.13-11.174S377.3,605.231,377.3,605.231l-5.282-1.369L413.3,552.6Z"/><path class="j" d="M448.194,569.688s8.87-8.739-1.174-15.783L461.5,524.427s5.087,3.261,8.935-1.565L499.455,551.3l-19.826,21.391-6.392-6.652-16.7,13.7Z"/><path class="j" d="M575.5,325.862s74.087,18.043,92.348,29,152.869-14.5,152.869-14.5L911.5,246.34,1059.673,74.449,1079.5,627.21l-339.13-21.978-8.348,9.456s-79.3-37.3-99.131-57-76.96-126.714-76.96-126.714V397.123Z"/><path class="k" d="M628.716,338.166s-8.609,19.3-8.87,21.652-3.913,10.174,4.435,15.913,37.565,19.044,38.087,31.305-4.956,32.869-4.174,38.347,9.913,65.218,9.913,65.218,1.044,8.608,15.913,17.478,34.435,21.652,42.783,28.435,26.087,5.739,29.739,4.956,15.391-3.782,36.131,12.848,44.608,35.022,44.608,35.022"/><path class="k" d="M670.65,516.255s-8.673.086-15.846-3.175-15.913-3.131-12.913-12.783,11.457-14.869,14.076-18.652,5.636-4.1,6.019-11.179"/><path class="k" d="M661.242,421.931l66.813,14.192S792.673,462.993,796,465.34s12.13,4.5,22.7,29.348,7.63,22.59,14.478,21.567,14.282-11.2,26.413-2.393,46.956,36.978,52.239,40.5,22.5,17.609,35.217,17.8,12.718-6.847,12.522-8.413.2-11.543,7.239-20.739,32.283-34.826,32.283-34.826,39.522-59.087,47.348-82.369"/><path class="k" d="M1006.847,603.862s-28.565-18.261-31.7-21.652-16.4-14.477-16.4-14.477"/><path class="k" d="M993.42,514s19.687,10.561,24.643,11.865,25.7,6.391,27.914,6"/><path class="k" d="M913.977,438.34s31.435-31.826,34.044-37.3,12.521-18,14.086-21.131,6.522-24.522,7.827-27.913,28.434-64.435,32.869-70.7,8.87-12,9.391-19.827,11.74-42.26,18-50.608,16.7-33.131,16.7-33.131"/><path class="k" d="M1044.542,288.34l-89.217-47.217,37.826-52.435s6-7.044,13.826-2.609,28.853,15.35,28.853,15.35"/><path class="k" d="M658.724,399.283s25.818,5.868,33.383,4.854,72.261-2.939,89.218-2.368,34.434-1.516,41.478-8.3,44.609-15,50.869-22.826,27.392-21.913,32.087-30.13,18-37.174,21.913-49.7,8.218-23.869,16.435-31.3,11.218-18.391,11.218-18.391"/><path class="k" d="M193.325,395.558l93.13-11.217,73.566-13.826s88.434-14.87,92.347-14.87,27.653,1.485,44.87,23.177"/><path class="k" d="M464.76,508.71l-79.7-39.848s-20.869-10.174-27.913-15.13-33.652-5.739-41.478-5.739-34.7-2.087-51.391-12.522-34.7-21.709-34.7-21.709l-5.739-20.552"/><line class="k" x2="9.225" y2="61.564" transform="translate(262.622 387.211)"/><path class="k" d="M214.2,448.775s16.7-4.174,22.957-5.478,33.187-4.584,33.187-4.584"/><path class="k" d="M265.816,408.528l-36.23,5.234,4.434,29.983"/><path class="k" d="M302.6,381.306l7.6,33.3-42.683,5.241"/><line class="k" x1="5.478" y1="33.391" transform="translate(310.195 414.601)"/><line class="k" y1="43.536" x2="22.089" transform="translate(375.934 445.935)"/><line class="k" y1="68.372" x2="39.383" transform="translate(388.716 359.273)"/><path class="k" d="M330.007,448.479l6.275,49.6s1.826,9.652,5.739,13.565,42,28.957,42,28.957"/><path class="k" d="M375.934,603.992s34.957-45.652,36-49.3,11.983-23.479,16.165-27.653,25.522-20.765,25.418-23.947c0,0-52.8-52.487-54.366-55.1s-10.434-20.348-10.434-20.348S373.586,420.862,360.8,414.6s-13.275-41.739-13.275-41.739"/><path class="k" d="M460.508,506.584s-.052,12.626-4.749,16.539-9.652,12.261-14.868,15.391-12,11.74-10.7,16.435-.522,15.456,8.609,18.293,20.347.49,23.739-4.728,5.217-16.434,5.217-27.913,11.478-20.087,11.478-20.087"/><path class="k" d="M426.8,605.558c0-1.3,3.913-14.609,6.913-19.565a82.706,82.706,0,0,0,5.68-12.577"/><path class="k" d="M400.522,547.775s7.5,6.13,17.02,6.13a180.994,180.994,0,0,1,21.854,1.827"/><path class="k" d="M468.151,518.166l-14.634,30.913s5.5,5.87,3.286,11.478-7.826,6.131-12.652,4.044-6.783-10.565-3.913-12.848,9.463-3.114,13.279-2.674"/><line class="k" x1="8.895" y1="13.331" transform="translate(453.517 564.607)"/><path class="k" d="M448.031,587.134l-14.315-1.141S420.64,572.851,418.488,566.2s.083-24.671.083-24.671"/><path class="k" d="M476.629,517.384l20.348,21,12.391,12.652H519.8L542.89,575.3l-32.478,37.7"/><path class="k" d="M482.5,492.21s10.957,8.087,11.087,13.826-1.957,12.913-4.435,15.913-11.348,6.652-11.739,15,1.3,26.218-1.565,30.391"/><path class="k" d="M474.086,507.732s-6.13-3.065-9.261,1.239.9,8.747,3.183,9.5,7.382,2.175,9.339-1.673S474.086,507.732,474.086,507.732Z"/><path class="k" d="M474.086,507.732l24.457-42.783s13.956-15.847,17.086-18.2,5.87-12.522,6.066-15.163,7.239-13.207,8.119-14.772.881-13.109.881-13.109"/><path class="l" d="M611.238,405.992s-7.043-21.391,4.7-20.87,30,.261,32.087,16.957-12.522,15.13-12.783,24,.717,23.217-6.554,23.739-18.229,4.435-17.446-3.652,5.739-4.7.783-10.7-6.522-8.608-.522-11.217-.261-18.261-.261-18.261"/><path class="l" d="M779.5,372.34s31.826-.783,37.565-6.783,18.261-16.174,25.565-10.434,9.131,16.7,1.826,20.869-21.13,1.565-33.391,6.522-32.087,5.217-36.522,3.913-16.173-14.348,4.957-14.087"/><path class="m" d="M682.223,201.8c-16.649,0-30.145,12.146-30.145,27.131,0,24.684,30.145,50.385,30.145,50.385s30.145-25.918,30.145-50.385c0-14.985-13.5-27.131-30.145-27.131m0,45.218A15.073,15.073,0,1,1,697.3,231.942a15.072,15.072,0,0,1-15.073,15.073" transform="translate(27.057 26.078)"/></g></g></g></g></svg>