<svg xmlns="http://www.w3.org/2000/svg" width="38.295" height="38.479" viewBox="0 0 38.295 38.479"><defs><style>.a{fill:#e1c191;}</style></defs><path class="a" d="M27.922,23.059c-.478-.239-2.82-1.39-3.256-1.55s-.754-.237-1.073.24-1.23,1.549-1.507,1.866-.556.358-1.033.12a13.08,13.08,0,0,1-3.832-2.365,14.342,14.342,0,0,1-2.65-3.3c-.277-.476-.03-.734.208-.972.215-.213.476-.556.715-.834a3.231,3.231,0,0,0,.476-.8.868.868,0,0,0-.04-.834c-.119-.239-1.071-2.585-1.469-3.539-.386-.928-.779-.8-1.071-.818s-.6-.016-.914-.016a1.746,1.746,0,0,0-1.27.6A5.337,5.337,0,0,0,9.54,14.832a9.271,9.271,0,0,0,1.945,4.929c.239.317,3.359,5.131,8.138,7.194a27.222,27.222,0,0,0,2.716,1,6.5,6.5,0,0,0,3,.189c.914-.136,2.819-1.153,3.216-2.265a3.994,3.994,0,0,0,.277-2.265c-.119-.2-.436-.317-.914-.556ZM19.229,34.928h-.006a15.827,15.827,0,0,1-8.07-2.211l-.575-.342-6,1.574,1.6-5.849L5.8,27.5a15.848,15.848,0,1,1,13.426,7.427ZM32.716,5.592A19.072,19.072,0,0,0,2.7,28.6L0,38.479l10.107-2.652a19.049,19.049,0,0,0,9.113,2.322h.008A19.076,19.076,0,0,0,32.716,5.592"/></svg>