<svg xmlns="http://www.w3.org/2000/svg" xmlns:xlink="http://www.w3.org/1999/xlink" width="169" height="62.248" viewBox="0 0 169 62.248"><defs><style>.a{fill:none;}.b{clip-path:url(#a);}.c{fill:rgba(255,255,255,0);stroke:#fff;}</style><clipPath id="a"><rect class="a" width="169" height="62.248" transform="translate(-6 -5)"/></clipPath></defs><g transform="translate(6 5)"><g class="b"><path class="c" d="M122.906,13.257s-30.1-15.408-47.3-12.183c0,0-13.079,1.612-31,4.837S10.571,7.7,0,0C0,0,12.9,17.557,41.924,11.107s46.583-12.541,80.982,2.15" transform="translate(0 0.001)"/><path class="c" d="M12.714,37.6,8.772,49.42a53.652,53.652,0,0,1,20.066-7.883c-7.883.358-16.125-3.942-16.125-3.942" transform="translate(-6.264 -26.845)"/><path class="c" d="M238.338,42.073c-26.158,1.433-42.462,1.971-71.665-3.225,0,0,10.75,9.317,43,7.525s52.838-3.583,68.343,3.942c0,0-13.519-9.675-39.677-8.241" transform="translate(-119.015 -27.74)"/><path class="c" d="M29.444,103.049v.98H21.077v21.3H17.361v-21.3H8.994v-.98Z" transform="translate(-6.422 -73.584)"/><path class="c" d="M86.725,101.257a11.448,11.448,0,0,1,3.677.59,11.75,11.75,0,0,1,5.731,4.176,11.622,11.622,0,0,1,1.664,3.2,11.74,11.74,0,0,1,0,7.356,11.612,11.612,0,0,1-1.664,3.2,11.911,11.911,0,0,1-2.527,2.527,11.634,11.634,0,0,1-13.763,0,11.742,11.742,0,0,1-4.175-5.73,11.74,11.74,0,0,1,0-7.356,11.678,11.678,0,0,1,7.379-7.38,11.447,11.447,0,0,1,3.678-.59m0,.979a5.89,5.89,0,0,0-1.462.186,6.7,6.7,0,0,0-2.6,1.384,9.391,9.391,0,0,0-1.921,2.255,11.978,11.978,0,0,0-1.376,3.3,14.335,14.335,0,0,0,0,7.076,11.949,11.949,0,0,0,1.376,3.3A9.4,9.4,0,0,0,82.658,122a6.7,6.7,0,0,0,2.6,1.385,5.89,5.89,0,0,0,1.462.186,5.764,5.764,0,0,0,1.461-.186A6.7,6.7,0,0,0,90.791,122a9.408,9.408,0,0,0,1.92-2.255,11.933,11.933,0,0,0,1.376-3.3,14.335,14.335,0,0,0,0-7.076,11.962,11.962,0,0,0-1.376-3.3,9.4,9.4,0,0,0-1.92-2.255,6.7,6.7,0,0,0-2.605-1.384,5.764,5.764,0,0,0-1.461-.186" transform="translate(-53.61 -72.304)"/><path class="c" d="M160.277,125.335v-9.47l-8.569-12.815h4.463l7.59,11.337,7.635-11.337h1.151l-8.553,12.815v9.47Z" transform="translate(-108.329 -73.584)"/><path class="c" d="M280.234,105.207a9.626,9.626,0,0,0-2.955-2.169,8.213,8.213,0,0,0-3.545-.786,8.347,8.347,0,0,0-3.422.732,9.222,9.222,0,0,0-2.442,1.594A10.351,10.351,0,0,0,266,106.824a11.335,11.335,0,0,0-1.26,2.932,12.022,12.022,0,0,0,0,6.3,11.344,11.344,0,0,0,1.26,2.932,10.392,10.392,0,0,0,1.866,2.247,9.243,9.243,0,0,0,2.442,1.594,8.342,8.342,0,0,0,3.422.731,8.212,8.212,0,0,0,3.545-.784,9.649,9.649,0,0,0,2.955-2.169l.7.715a12.052,12.052,0,0,1-3.88,2.41,12.438,12.438,0,0,1-4.487.824,12.308,12.308,0,0,1-5.551-1.3,12.029,12.029,0,0,1-4.386-3.709,11.347,11.347,0,0,1,0-13.281,12.023,12.023,0,0,1,4.386-3.709,12.312,12.312,0,0,1,5.551-1.3,12.467,12.467,0,0,1,4.487.823,12.085,12.085,0,0,1,3.88,2.411Z" transform="translate(-186.003 -72.304)"/><path class="c" d="M342.161,117.652l-3.576,7.682H337.5l10.389-22.285h1.088l10.389,22.285h-4.106l-3.577-7.682Zm4.759-10.2-4.292,9.222h8.584Z" transform="translate(-240.994 -73.584)"/><path class="c" d="M423.756,125.334V103.049h10.606a6.053,6.053,0,0,1,3.172.856,6.532,6.532,0,0,1,2.287,2.285,6.316,6.316,0,0,1,0,6.345,6.531,6.531,0,0,1-2.287,2.286,6.065,6.065,0,0,1-3.172.855l7.029,9.658h-4.6l-7.03-9.658h-2.286v9.658Zm3.716-10.637h4.168a5.334,5.334,0,0,0,0-10.668h-4.168Z" transform="translate(-302.59 -73.584)"/><path class="c" d="M506.559,104.878a11.57,11.57,0,0,0-1.726-1.135,10.5,10.5,0,0,0-2.5-.949,12.018,12.018,0,0,0-2.582-.279h-.373a6.8,6.8,0,0,0-1.578.186,5.477,5.477,0,0,0-1.485.591,4,4,0,0,0-.972.777,2.759,2.759,0,0,0-.614,1.088,3.256,3.256,0,0,0-.093.762,4.234,4.234,0,0,0,.054.559,2.76,2.76,0,0,0,.334.887,5.6,5.6,0,0,0,1.026,1.306,8.574,8.574,0,0,0,1.306,1.026q1.307.825,2.675,1.54c.124.073.244.141.358.2q1,.528,1.96,1.08a20.9,20.9,0,0,1,1.866,1.205,10.23,10.23,0,0,1,1.368,1.19,6.8,6.8,0,0,1,1.073,1.454,4.708,4.708,0,0,1,.622,2.348c0,.1-.005.212-.015.327a4.948,4.948,0,0,1-.56,1.943,5.38,5.38,0,0,1-1.166,1.5,6.679,6.679,0,0,1-1.586,1.065,8.527,8.527,0,0,1-2.138.747,11.925,11.925,0,0,1-2.263.249h-.358a15.98,15.98,0,0,1-2.223-.155,12.3,12.3,0,0,1-2.426-.591,10.99,10.99,0,0,1-3.671-2.178l.7-.7a10.467,10.467,0,0,0,1.726,1.135,10.125,10.125,0,0,0,2.5.949,12.5,12.5,0,0,0,2.706.3h.249a7.467,7.467,0,0,0,1.579-.2,5.5,5.5,0,0,0,1.485-.591,3.882,3.882,0,0,0,.964-.777,3,3,0,0,0,.622-1.088,2.423,2.423,0,0,0,.109-.7,4.172,4.172,0,0,0-.062-.606,2.947,2.947,0,0,0-.343-.9,5.5,5.5,0,0,0-1.026-1.3,9.433,9.433,0,0,0-1.322-1.034q-1.291-.823-2.659-1.54-.187-.107-.389-.217-.98-.513-1.936-1.066a20.968,20.968,0,0,1-1.858-1.205,10.16,10.16,0,0,1-1.368-1.189,6.819,6.819,0,0,1-1.074-1.454,4.807,4.807,0,0,1-.606-2.348v-.327a5.1,5.1,0,0,1,.544-1.944,5.733,5.733,0,0,1,1.174-1.5,6.558,6.558,0,0,1,1.578-1.066,8.791,8.791,0,0,1,2.147-.746,11.759,11.759,0,0,1,2.27-.249h.373a15.553,15.553,0,0,1,2.193.155,12.566,12.566,0,0,1,2.442.591,11.182,11.182,0,0,1,3.67,2.178Z" transform="translate(-350.512 -72.303)"/></g></g></svg>