<svg xmlns="http://www.w3.org/2000/svg" xmlns:xlink="http://www.w3.org/1999/xlink" width="228.954" height="165.51" viewBox="0 0 228.954 165.51"><defs><style>.a{fill:none;}.b{clip-path:url(#a);}.c{fill:#fff;}</style><clipPath id="a"><rect class="a" width="228.954" height="165.51"/></clipPath></defs><g class="b"><path class="c" d="M37.317,144.336,0,181.4s18.779-6.086,47.612-10.172c37.011-5.244,90.588-7.194,142.279,11.257,0,0-47.768-32.076-114.774-37.9a233.967,233.967,0,0,0-37.8-.25" transform="translate(0 -67.704)"/><path class="c" d="M156.348,36.922l112.578,79.483L226.878,73.65V31.5H200.294v7.6l12.3,20.033L154.449,0,84.833,69.139a332.51,332.51,0,0,1,34.761,3.379Z" transform="translate(-39.972)"/><path class="c" d="M25,244.515v-9.079h6.309V259.7H25v-9.22H15.818v9.22H9.508V235.437h6.309v9.079Z" transform="translate(-4.48 -110.933)"/><path class="c" d="M69.411,234.641c7.888,0,12.549,5.259,12.549,12.514v.035c0,7.292-4.662,12.551-12.549,12.551h-.035c-7.888,0-12.55-5.259-12.55-12.551v-.035c0-7.255,4.663-12.514,12.55-12.514Zm0,19.211c3.926,0,6.238-2.805,6.238-6.662v-.035c0-3.819-2.312-6.624-6.238-6.624h-.035c-3.926,0-6.241,2.805-6.241,6.624v.035c0,3.857,2.314,6.662,6.241,6.662Z" transform="translate(-26.775 -110.559)"/><path class="c" d="M125.056,235.437h6.309v13.145c0,8.03-4.662,11.535-11.007,11.535h-.035c-6.345,0-11.007-3.505-11.007-11.535V235.437h6.309v13.145c0,4.278,2.313,5.434,4.7,5.434h.035c2.384,0,4.7-1.156,4.7-5.434Z" transform="translate(-51.508 -110.934)"/><path class="c" d="M172.073,242.037a8.424,8.424,0,0,0-5.644-1.786h-.035c-2.244,0-3.716.561-3.716,1.682,0,.77.456,1.191,2.875,1.682l4.277.877c4.906,1.016,6.24,4.452,6.2,7.852,0,4.766-4.243,7.4-9.816,7.4h-.035c-5.187,0-8.939-1.649-11.007-5.05l5.189-3.784a6.417,6.417,0,0,0,5.958,3.259h.036c2.139,0,3.295-.735,3.295-2s-.947-1.751-2.524-2.137l-5.153-1.226c-4.066-.982-5.679-3.54-5.679-6.627,0-5.082,4.313-7.537,10.342-7.537h.035a14.23,14.23,0,0,1,9.044,2.7Z" transform="translate(-73.116 -110.558)"/><path class="c" d="M217.371,235.437v5.889H206.82v3.3h9.149v5.887H206.82v3.3h10.551V259.7H200.509V235.437Z" transform="translate(-94.476 -110.934)"/><path class="c" d="M271.738,242.459a7.781,7.781,0,0,0-5.295-1.928h-.035c-3.926,0-6.239,2.944-6.239,6.624v.035c.069,3.752,2.348,6.662,6.239,6.662h.035a7.639,7.639,0,0,0,5.295-1.928l3.47,4.731a12.414,12.414,0,0,1-8.765,3.087h-.035c-7.888,0-12.549-5.26-12.549-12.551v-.035c0-7.255,4.661-12.514,12.549-12.514h.035a12.6,12.6,0,0,1,8.765,3.085Z" transform="translate(-119.614 -110.559)"/><path class="c" d="M305.767,235.437v18.195h11.567V259.7H299.456V235.437Z" transform="translate(-141.098 -110.934)"/><path class="c" d="M353.434,235.437h6.309v13.145c0,8.03-4.662,11.535-11.007,11.535H348.7c-6.344,0-11.007-3.505-11.007-11.535V235.437H344v13.145c0,4.278,2.313,5.434,4.7,5.434h.035c2.384,0,4.7-1.156,4.7-5.434Z" transform="translate(-159.116 -110.934)"/><path class="c" d="M407.476,252.964c0,4.838-4.242,6.731-9.254,6.731H387V235.437H397.7c6.1,0,9.185,2.419,9.185,6.732,0,3.505-1.508,4.978-3.506,5.608,2.558.665,4.1,2.172,4.1,5.187m-14.161-12.094v4.278h4.767c1.4,0,2.593-.386,2.593-2.035,0-1.47-1.051-2.242-2.979-2.242Zm0,13.391h4.907c1.963,0,3.051-.561,3.051-2.137,0-1.159-.667-2.14-2.945-2.14h-5.013Z" transform="translate(-182.349 -110.934)"/><path class="c" d="M40.678,306.382h-.33l-2.013-2.675c-.123.012-.258.021-.4.021H35.6v2.654h-.3v-7.143h2.632c1.693,0,2.6.94,2.6,2.282v.009a2.1,2.1,0,0,1-1.9,2.137ZM35.6,303.461h2.333c1.518,0,2.3-.816,2.3-1.931v-.009c0-1.2-.785-2-2.3-2H35.6Z" transform="translate(-16.633 -140.996)"/><path class="c" d="M57.843,299.239v.279H53.622v3.189h3.9v.279h-3.9V306.1h4.222v.279H53.322v-7.143Z" transform="translate(-25.125 -140.996)"/><path class="c" d="M75.295,306.382h-.309l-.94-2.075H69.762l-.939,2.075h-.31l3.242-7.144h.3Zm-3.385-6.813-2.023,4.469h4.045Z" transform="translate(-32.282 -140.995)"/><path class="c" d="M89.235,299.239V306.1h4.533v.279H88.936v-7.143Z" transform="translate(-41.905 -140.996)"/><path class="c" d="M120.657,299.239v.279h-4.222v3.189h3.9v.279h-3.9V306.1h4.222v.279h-4.522v-7.143Z" transform="translate(-54.721 -140.996)"/><path class="c" d="M136.527,300.832a2.151,2.151,0,0,0-2.3-1.547h-.011c-1.424,0-2.177.6-2.177,1.454,0,.61.351,1.228,1.383,1.5l1.868.484a1.784,1.784,0,0,1,1.548,1.858c0,1.042-.887,1.816-2.549,1.816h-.009a2.616,2.616,0,0,1-2.757-1.765l.258-.144a2.352,2.352,0,0,0,2.5,1.643h.009c1.477,0,2.261-.651,2.261-1.558a1.568,1.568,0,0,0-1.373-1.57l-1.888-.5a1.785,1.785,0,0,1-1.549-1.766c0-1.031.847-1.733,2.478-1.733h.011a2.347,2.347,0,0,1,2.518,1.661Z" transform="translate(-61.97 -140.886)"/><path class="c" d="M153.54,299.239v.279h-2.581v6.864h-.3v-6.864h-2.581v-.279Z" transform="translate(-69.772 -140.996)"/><path class="c" d="M169.915,306.382h-.309l-.94-2.075h-4.282l-.94,2.075h-.309l3.24-7.144h.3Zm-3.384-6.813-2.024,4.469h4.047Z" transform="translate(-76.866 -140.995)"/><path class="c" d="M186.147,299.239v.279h-2.581v6.864h-.3v-6.864h-2.581v-.279Z" transform="translate(-85.136 -140.996)"/><path class="c" d="M203.092,299.239v.279H198.87v3.189h3.9v.279h-3.9V306.1h4.222v.279h-4.521v-7.143Z" transform="translate(-93.563 -140.996)"/><path class="c" d="M230.56,304.494c0,1.361-.826,1.888-2.4,1.888h-2.746v-7.143h2.456c1.59,0,2.4.433,2.4,1.8a1.525,1.525,0,0,1-1.477,1.642c1.2.166,1.766.775,1.766,1.817m-4.841-4.987v3.057h2.063c1.518,0,2.189-.433,2.189-1.508,0-1.218-.712-1.549-2.1-1.549Zm0,6.606h2.446c1.393,0,2.106-.442,2.106-1.63,0-1.084-.672-1.661-2.2-1.661h-2.353Z" transform="translate(-106.213 -140.996)"/><path class="c" d="M243.427,299.239V306.1h4.531v.279h-4.831v-7.143Z" transform="translate(-114.557 -140.996)"/><path class="c" d="M261.677,299.005a3.449,3.449,0,0,1,3.593,3.685v.009a3.453,3.453,0,0,1-3.593,3.7h-.01a3.456,3.456,0,0,1-3.6-3.7v-.009a3.451,3.451,0,0,1,3.6-3.685Zm0,7.111a3.173,3.173,0,0,0,3.3-3.417v-.009a3.169,3.169,0,0,0-3.3-3.406h-.01a3.163,3.163,0,0,0-3.3,3.406v.009a3.168,3.168,0,0,0,3.3,3.417Z" transform="translate(-121.596 -140.886)"/><path class="c" d="M284.536,299.934a3.338,3.338,0,0,0-2.065-.649h-.011a3.186,3.186,0,0,0-3.281,3.405v.01a3.189,3.189,0,0,0,3.281,3.417h.011a3.317,3.317,0,0,0,2.065-.649l.164.226a3.5,3.5,0,0,1-2.229.7h-.011a3.439,3.439,0,0,1-3.582-3.7v-.01a3.436,3.436,0,0,1,3.582-3.684h.011a3.519,3.519,0,0,1,2.229.7Z" transform="translate(-131.403 -140.886)"/><path class="c" d="M302.51,299.239h.319l-2.642,3.634,2.642,3.51H302.5l-2.558-3.4h-2.075v3.4h-.3v-7.143h.3v3.468h2.095Z" transform="translate(-140.207 -140.996)"/><path class="c" d="M319.722,299.934a3.333,3.333,0,0,0-2.065-.649h-.011a3.186,3.186,0,0,0-3.282,3.405v.01a3.19,3.19,0,0,0,3.282,3.417h.011a3.312,3.312,0,0,0,2.065-.649l.165.226a3.5,3.5,0,0,1-2.23.7h-.011a3.438,3.438,0,0,1-3.581-3.7v-.01a3.435,3.435,0,0,1,3.581-3.684h.011a3.515,3.515,0,0,1,2.23.7Z" transform="translate(-147.982 -140.886)"/><path class="c" d="M338.292,302.707v-3.468h.3v7.143h-.3v-3.4h-5.243v3.4h-.3v-7.143h.3v3.468Z" transform="translate(-156.785 -140.996)"/><path class="c" d="M358.181,306.382h-.31l-.939-2.075h-4.284l-.939,2.075H351.4l3.24-7.144h.3Zm-3.387-6.813-2.023,4.469h4.047Z" transform="translate(-165.573 -140.995)"/><rect class="c" width="0.3" height="7.143" transform="translate(196.625 158.243)"/><path class="c" d="M386.687,299.239h.288v7.143H386.6l-5.181-6.771v6.771h-.29v-7.143h.372l5.181,6.771Z" transform="translate(-179.583 -140.996)"/></g></svg>